<?xml version="1.0" encoding="UTF-8"?><svg xmlns="http://www.w3.org/2000/svg" xmlns:xlink="http://www.w3.org/1999/xlink" fill-opacity="1" color-rendering="auto" color-interpolation="auto" text-rendering="auto" stroke="black" stroke-linecap="square" width="352" stroke-miterlimit="10" shape-rendering="auto" stroke-opacity="1" fill="black" stroke-dasharray="none" font-weight="normal" stroke-width="1" height="378" font-family="'Dialog'" font-style="normal" stroke-linejoin="miter" font-size="12px" stroke-dashoffset="0" image-rendering="auto">
  <!--Generated by ySVG 2.6-->
  <defs id="genericDefs"/>
  <g>
    <defs id="defs1">
      <clipPath clipPathUnits="userSpaceOnUse" id="clipPath1">
        <path d="M0 0 L352 0 L352 378 L0 378 L0 0 Z"/>
      </clipPath>
      <clipPath clipPathUnits="userSpaceOnUse" id="clipPath2">
        <path d="M616 200 L968 200 L968 578 L616 578 L616 200 Z"/>
      </clipPath>
    </defs>
    <g fill="white" text-rendering="geometricPrecision" shape-rendering="geometricPrecision" transform="translate(-616,-200)" stroke="white">
      <rect x="616" width="352" height="378" y="200" clip-path="url(#clipPath2)" stroke="none"/>
    </g>
    <g fill="rgb(255,204,0)" text-rendering="geometricPrecision" shape-rendering="geometricPrecision" transform="matrix(1,0,0,1,-616,-200)" stroke="rgb(255,204,0)">
      <rect x="642" width="66" height="44" y="304" clip-path="url(#clipPath2)" stroke="none"/>
    </g>
    <g text-rendering="geometricPrecision" stroke-miterlimit="1.45" shape-rendering="geometricPrecision" transform="matrix(1,0,0,1,-616,-200)" stroke-linecap="butt">
      <rect fill="none" x="642" width="66" height="44" y="304" clip-path="url(#clipPath2)"/>
      <text x="656.3262" xml:space="preserve" y="330.7139" clip-path="url(#clipPath2)" font-family="sans-serif" stroke="none">Project</text>
    </g>
    <g fill="rgb(255,204,0)" text-rendering="geometricPrecision" shape-rendering="geometricPrecision" transform="matrix(1,0,0,1,-616,-200)" stroke="rgb(255,204,0)">
      <rect x="631.75" width="86.5" height="44" y="244" clip-path="url(#clipPath2)" stroke="none"/>
    </g>
    <g text-rendering="geometricPrecision" stroke-miterlimit="1.45" shape-rendering="geometricPrecision" transform="matrix(1,0,0,1,-616,-200)" stroke-linecap="butt">
      <rect fill="none" x="631.75" width="86.5" height="44" y="244" clip-path="url(#clipPath2)"/>
      <text x="656.3262" xml:space="preserve" y="263.3633" clip-path="url(#clipPath2)" font-family="sans-serif" stroke="none">Project</text>
      <text x="652.9893" xml:space="preserve" y="278.0645" clip-path="url(#clipPath2)" font-family="sans-serif" stroke="none">Schema</text>
    </g>
    <g fill="rgb(255,204,0)" text-rendering="geometricPrecision" shape-rendering="geometricPrecision" transform="matrix(1,0,0,1,-616,-200)" stroke="rgb(255,204,0)">
      <rect x="774" width="66" height="44" y="344" clip-path="url(#clipPath2)" stroke="none"/>
    </g>
    <g text-rendering="geometricPrecision" stroke-miterlimit="1.45" shape-rendering="geometricPrecision" transform="matrix(1,0,0,1,-616,-200)" stroke-linecap="butt">
      <rect fill="none" x="774" width="66" height="44" y="344" clip-path="url(#clipPath2)"/>
      <text x="793.002" xml:space="preserve" y="363.3633" clip-path="url(#clipPath2)" font-family="sans-serif" stroke="none">Work</text>
      <text x="783.6504" xml:space="preserve" y="378.0645" clip-path="url(#clipPath2)" font-family="sans-serif" stroke="none">Package</text>
    </g>
    <g fill="rgb(255,204,0)" text-rendering="geometricPrecision" shape-rendering="geometricPrecision" transform="matrix(1,0,0,1,-616,-200)" stroke="rgb(255,204,0)">
      <rect x="774" width="66" height="44" y="283" clip-path="url(#clipPath2)" stroke="none"/>
    </g>
    <g text-rendering="geometricPrecision" stroke-miterlimit="1.45" shape-rendering="geometricPrecision" transform="matrix(1,0,0,1,-616,-200)" stroke-linecap="butt">
      <rect fill="none" x="774" width="66" height="44" y="283" clip-path="url(#clipPath2)"/>
      <text x="794.001" xml:space="preserve" y="302.3633" clip-path="url(#clipPath2)" font-family="sans-serif" stroke="none">[WP]</text>
      <text x="793.6611" xml:space="preserve" y="317.0645" clip-path="url(#clipPath2)" font-family="sans-serif" stroke="none">Type</text>
    </g>
    <g fill="rgb(255,204,0)" text-rendering="geometricPrecision" shape-rendering="geometricPrecision" transform="matrix(1,0,0,1,-616,-200)" stroke="rgb(255,204,0)">
      <rect x="774" width="66" height="44" y="215" clip-path="url(#clipPath2)" stroke="none"/>
    </g>
    <g text-rendering="geometricPrecision" stroke-miterlimit="1.45" shape-rendering="geometricPrecision" transform="matrix(1,0,0,1,-616,-200)" stroke-linecap="butt">
      <rect fill="none" x="774" width="66" height="44" y="215" clip-path="url(#clipPath2)"/>
      <text x="797.335" xml:space="preserve" y="234.3633" clip-path="url(#clipPath2)" font-family="sans-serif" stroke="none">WP</text>
      <text x="777.6562" xml:space="preserve" y="249.0645" clip-path="url(#clipPath2)" font-family="sans-serif" stroke="none">Schema(?)</text>
    </g>
    <g fill="rgb(255,204,0)" text-rendering="geometricPrecision" shape-rendering="geometricPrecision" transform="matrix(1,0,0,1,-616,-200)" stroke="rgb(255,204,0)">
      <rect x="642" width="66" height="44" y="423" clip-path="url(#clipPath2)" stroke="none"/>
    </g>
    <g text-rendering="geometricPrecision" stroke-miterlimit="1.45" shape-rendering="geometricPrecision" transform="matrix(1,0,0,1,-616,-200)" stroke-linecap="butt">
      <rect fill="none" x="642" width="66" height="44" y="423" clip-path="url(#clipPath2)"/>
      <text x="663.665" xml:space="preserve" y="449.7139" clip-path="url(#clipPath2)" font-family="sans-serif" stroke="none">Grid</text>
    </g>
    <g fill="rgb(255,204,0)" text-rendering="geometricPrecision" shape-rendering="geometricPrecision" transform="matrix(1,0,0,1,-616,-200)" stroke="rgb(255,204,0)">
      <rect x="642" width="66" height="44" y="497" clip-path="url(#clipPath2)" stroke="none"/>
    </g>
    <g text-rendering="geometricPrecision" stroke-miterlimit="1.45" shape-rendering="geometricPrecision" transform="matrix(1,0,0,1,-616,-200)" stroke-linecap="butt">
      <rect fill="none" x="642" width="66" height="44" y="497" clip-path="url(#clipPath2)"/>
      <text x="662.332" xml:space="preserve" y="523.7139" clip-path="url(#clipPath2)" font-family="sans-serif" stroke="none">User</text>
    </g>
    <g fill="rgb(255,204,0)" text-rendering="geometricPrecision" shape-rendering="geometricPrecision" transform="matrix(1,0,0,1,-616,-200)" stroke="rgb(255,204,0)">
      <rect x="887" width="66" height="44" y="309" clip-path="url(#clipPath2)" stroke="none"/>
    </g>
    <g text-rendering="geometricPrecision" stroke-miterlimit="1.45" shape-rendering="geometricPrecision" transform="matrix(1,0,0,1,-616,-200)" stroke-linecap="butt">
      <rect fill="none" x="887" width="66" height="44" y="309" clip-path="url(#clipPath2)"/>
      <text x="907.001" xml:space="preserve" y="328.3633" clip-path="url(#clipPath2)" font-family="sans-serif" stroke="none">[WP]</text>
      <text x="900.998" xml:space="preserve" y="343.0645" clip-path="url(#clipPath2)" font-family="sans-serif" stroke="none">Activity</text>
    </g>
    <g fill="rgb(255,204,0)" text-rendering="geometricPrecision" shape-rendering="geometricPrecision" transform="matrix(1,0,0,1,-616,-200)" stroke="rgb(255,204,0)">
      <rect x="887" width="66" height="44" y="359" clip-path="url(#clipPath2)" stroke="none"/>
    </g>
    <g text-rendering="geometricPrecision" stroke-miterlimit="1.45" shape-rendering="geometricPrecision" transform="matrix(1,0,0,1,-616,-200)" stroke-linecap="butt">
      <rect fill="none" x="887" width="66" height="44" y="359" clip-path="url(#clipPath2)"/>
      <text x="907.001" xml:space="preserve" y="378.3633" clip-path="url(#clipPath2)" font-family="sans-serif" stroke="none">[WP]</text>
      <text x="896.9902" xml:space="preserve" y="393.0645" clip-path="url(#clipPath2)" font-family="sans-serif" stroke="none">Revision</text>
    </g>
    <g fill="rgb(255,204,0)" text-rendering="geometricPrecision" shape-rendering="geometricPrecision" transform="matrix(1,0,0,1,-616,-200)" stroke="rgb(255,204,0)">
      <rect x="887" width="66" height="44" y="409" clip-path="url(#clipPath2)" stroke="none"/>
    </g>
    <g text-rendering="geometricPrecision" stroke-miterlimit="1.45" shape-rendering="geometricPrecision" transform="matrix(1,0,0,1,-616,-200)" stroke-linecap="butt">
      <rect fill="none" x="887" width="66" height="44" y="409" clip-path="url(#clipPath2)"/>
      <text x="907.001" xml:space="preserve" y="428.3633" clip-path="url(#clipPath2)" font-family="sans-serif" stroke="none">[WP]</text>
      <text x="889.6514" xml:space="preserve" y="443.0645" clip-path="url(#clipPath2)" font-family="sans-serif" stroke="none">Attachment</text>
    </g>
    <g fill="rgb(255,204,0)" text-rendering="geometricPrecision" shape-rendering="geometricPrecision" transform="matrix(1,0,0,1,-616,-200)" stroke="rgb(255,204,0)">
      <circle r="15" clip-path="url(#clipPath2)" cx="797.5" cy="480" stroke="none"/>
    </g>
    <g text-rendering="geometricPrecision" stroke-miterlimit="1.45" shape-rendering="geometricPrecision" transform="matrix(1,0,0,1,-616,-200)" stroke-linecap="butt">
      <circle fill="none" r="15" clip-path="url(#clipPath2)" cx="797.5" cy="480"/>
    </g>
    <g fill="rgb(0,204,255)" text-rendering="geometricPrecision" shape-rendering="geometricPrecision" transform="matrix(1,0,0,1,-616,-200)" stroke="rgb(0,204,255)">
      <rect x="827" y="533" clip-path="url(#clipPath2)" width="30" rx="4" ry="4" height="30" stroke="none"/>
    </g>
    <g text-rendering="geometricPrecision" stroke-miterlimit="1.45" shape-rendering="geometricPrecision" transform="matrix(1,0,0,1,-616,-200)" stroke-linecap="butt">
      <rect x="827" y="533" clip-path="url(#clipPath2)" fill="none" width="30" rx="4" ry="4" height="30"/>
    </g>
    <g fill="rgb(255,204,0)" text-rendering="geometricPrecision" shape-rendering="geometricPrecision" transform="matrix(1,0,0,1,-616,-200)" stroke="rgb(255,204,0)">
      <path d="M887 512 L890 497 L914 497 L917 512 L914 527 L890 527 Z" fill-rule="evenodd" clip-path="url(#clipPath2)" stroke="none"/>
    </g>
    <g text-rendering="geometricPrecision" stroke-miterlimit="1.45" shape-rendering="geometricPrecision" transform="matrix(1,0,0,1,-616,-200)" stroke-linecap="butt">
      <path fill="none" d="M887 512 L890 497 L914 497 L917 512 L914 527 L890 527 Z" fill-rule="evenodd" clip-path="url(#clipPath2)"/>
      <path fill="none" d="M708 336 L766.3438 353.6799" clip-path="url(#clipPath2)"/>
      <path d="M774 356 L763.9658 347.7348 L765.3868 353.3899 L761.0657 357.305 Z" clip-path="url(#clipPath2)" stroke="none"/>
      <path fill="none" d="M708 320.75 L766.0994 311.5069" clip-path="url(#clipPath2)"/>
      <path d="M774 310.25 L761.3635 307.1975 L765.1118 311.664 L762.9346 317.0733 Z" clip-path="url(#clipPath2)" stroke="none"/>
      <path fill="none" d="M840 355.7787 L879.3582 343.5882" clip-path="url(#clipPath2)"/>
      <path d="M887 341.2213 L874.0579 339.9955 L878.403 343.884 L877.0165 349.5478 Z" clip-path="url(#clipPath2)" stroke="none"/>
      <path fill="none" d="M840 370.3805 L879.0696 375.5667" clip-path="url(#clipPath2)"/>
      <path d="M887 376.6195 L875.7623 370.0839 L878.0782 375.4352 L874.4464 379.9969 Z" clip-path="url(#clipPath2)" stroke="none"/>
      <path fill="none" d="M840 384.9823 L880.0654 408.0288" clip-path="url(#clipPath2)"/>
      <path d="M887 412.0177 L879.0912 401.7002 L879.1986 407.5302 L874.105 410.3684 Z" clip-path="url(#clipPath2)" stroke="none"/>
      <path fill="none" d="M805.7137 492.5513 L825.5956 522.9326" stroke-width="5" clip-path="url(#clipPath2)" stroke="rgb(51,102,255)"/>
      <path fill="rgb(51,102,255)" d="M832.1666 532.9736 L828.5858 513.8052 L824.7742 521.6774 L816.0345 522.0189 Z" stroke-width="5" clip-path="url(#clipPath2)" stroke="none"/>
    </g>
  </g>
</svg>
