<?xml version="1.0" encoding="UTF-8" standalone="no"?>
<svg
   fill-opacity="1"
   color-rendering="auto"
   color-interpolation="auto"
   text-rendering="auto"
   stroke="black"
   stroke-linecap="square"
   width="352"
   stroke-miterlimit="10"
   shape-rendering="auto"
   stroke-opacity="1"
   fill="black"
   stroke-dasharray="none"
   font-weight="normal"
   stroke-width="1"
   height="378"
   font-family="'Dialog'"
   font-style="normal"
   stroke-linejoin="miter"
   font-size="12px"
   stroke-dashoffset="0"
   image-rendering="auto"
   version="1.1"
   id="svg185"
   sodipodi:docname="OpenProject.svg"
   xmlns:inkscape="http://www.inkscape.org/namespaces/inkscape"
   xmlns:sodipodi="http://sodipodi.sourceforge.net/DTD/sodipodi-0.dtd"
   xmlns="http://www.w3.org/2000/svg"
   xmlns:svg="http://www.w3.org/2000/svg">
  <sodipodi:namedview
     id="namedview187"
     pagecolor="#ffffff"
     bordercolor="#000000"
     borderopacity="0.25"
     inkscape:showpageshadow="2"
     inkscape:pageopacity="0.0"
     inkscape:pagecheckerboard="0"
     inkscape:deskcolor="#d1d1d1" />
  <!--Generated by ySVG 2.6-->
  <defs
     id="genericDefs" />
  <g
     id="g183">
    <defs
       id="defs1">
      <clipPath
         clipPathUnits="userSpaceOnUse"
         id="clipPath1">
        <path
           d="M0 0 L352 0 L352 378 L0 378 L0 0 Z"
           id="path10" />
      </clipPath>
      <clipPath
         clipPathUnits="userSpaceOnUse"
         id="clipPath2">
        <path
           d="M616 200 L968 200 L968 578 L616 578 L616 200 Z"
           id="path13" />
      </clipPath>
    </defs>
    <g
       fill="white"
       text-rendering="geometricPrecision"
       shape-rendering="geometricPrecision"
       transform="translate(-616,-200)"
       stroke="white"
       id="g19">
      <path
         id="rect17"
         clip-path="url(#clipPath2)"
         style="stroke:none"
         d="M 616,200 H 968 V 578 H 616 Z" />
    </g>
    <g
       fill="rgb(255,204,0)"
       text-rendering="geometricPrecision"
       shape-rendering="geometricPrecision"
       transform="matrix(1,0,0,1,-616,-200)"
       stroke="rgb(255,204,0)"
       id="g23">
      <path
         id="rect21"
         clip-path="url(#clipPath2)"
         style="stroke:none"
         d="m 642,304 h 66 v 44 h -66 z" />
    </g>
    <g
       text-rendering="geometricPrecision"
       stroke-miterlimit="1.45"
       shape-rendering="geometricPrecision"
       transform="matrix(1,0,0,1,-616,-200)"
       stroke-linecap="butt"
       id="g29">
      <path
         id="rect25"
         clip-path="url(#clipPath2)"
         style="fill:none"
         d="m 642,304 h 66 v 44 h -66 z" />
      <g
         aria-label="Project"
         id="text27"
         clip-path="url(#clipPath2)"
         style="font-family:sans-serif;stroke:none">
        <path
           d="m 659.75817,322.1459 q 1.68,0 2.448,0.66 0.768,0.66 0.768,1.86 0,0.708 -0.324,1.332 -0.312,0.612 -1.068,0.996 -0.744,0.384 -2.028,0.384 h -0.984 v 3.336 h -1.08 v -8.568 z m -0.096,0.924 h -1.092 v 3.384 h 0.864 q 1.224,0 1.824,-0.396 0.6,-0.396 0.6,-1.344 0,-0.828 -0.54,-1.236 -0.528,-0.408 -1.656,-0.408 z"
           id="path192" />
        <path
           d="m 667.60617,324.1619 q 0.18,0 0.384,0.024 0.204,0.012 0.372,0.048 l -0.132,0.972 q -0.156,-0.036 -0.348,-0.06 -0.192,-0.024 -0.348,-0.024 -0.492,0 -0.924,0.276 -0.432,0.264 -0.696,0.756 -0.252,0.48 -0.252,1.128 v 3.432 h -1.056 v -6.432 h 0.864 l 0.12,1.176 h 0.048 q 0.3,-0.528 0.792,-0.912 0.504,-0.384 1.176,-0.384 z"
           id="path194" />
        <path
           d="m 674.91416,327.4859 q 0,1.596 -0.816,2.472 -0.804,0.876 -2.184,0.876 -0.852,0 -1.524,-0.384 -0.66,-0.396 -1.044,-1.14 -0.384,-0.756 -0.384,-1.824 0,-1.596 0.792,-2.46 0.804,-0.864 2.196,-0.864 0.864,0 1.536,0.396 0.672,0.384 1.044,1.128 0.384,0.732 0.384,1.8 z m -4.86,0 q 0,1.14 0.444,1.812 0.456,0.66 1.44,0.66 0.972,0 1.428,-0.66 0.456,-0.672 0.456,-1.812 0,-1.14 -0.456,-1.788 -0.456,-0.648 -1.44,-0.648 -0.984,0 -1.428,0.648 -0.444,0.648 -0.444,1.788 z"
           id="path196" />
        <path
           d="m 676.49816,322.5419 q 0,-0.348 0.18,-0.504 0.18,-0.168 0.444,-0.168 0.24,0 0.42,0.168 0.192,0.156 0.192,0.504 0,0.348 -0.192,0.516 -0.18,0.156 -0.42,0.156 -0.264,0 -0.444,-0.156 -0.18,-0.168 -0.18,-0.516 z m -0.672,11.052 q -0.312,0 -0.54,-0.048 -0.228,-0.036 -0.384,-0.096 v -0.852 q 0.18,0.06 0.372,0.084 0.192,0.036 0.42,0.036 0.384,0 0.636,-0.216 0.252,-0.204 0.252,-0.792 v -7.428 h 1.056 v 7.392 q 0,0.9 -0.432,1.404 -0.432,0.516 -1.38,0.516 z"
           id="path198" />
        <path
           d="m 682.16215,324.1619 q 0.816,0 1.416,0.36 0.6,0.36 0.912,1.02 0.324,0.648 0.324,1.524 v 0.636 h -4.404 q 0.024,1.092 0.552,1.668 0.54,0.564 1.5,0.564 0.612,0 1.08,-0.108 0.48,-0.12 0.984,-0.336 v 0.924 q -0.492,0.216 -0.972,0.312 -0.48,0.108 -1.14,0.108 -0.924,0 -1.62,-0.372 -0.696,-0.372 -1.092,-1.104 -0.384,-0.732 -0.384,-1.812 0,-1.056 0.348,-1.812 0.36,-0.756 0.996,-1.164 0.648,-0.408 1.5,-0.408 z m -0.012,0.864 q -0.756,0 -1.2,0.492 -0.432,0.48 -0.516,1.344 h 3.276 q -0.012,-0.816 -0.384,-1.32 -0.372,-0.516 -1.176,-0.516 z"
           id="path200" />
        <path
           d="m 689.02614,330.8339 q -0.864,0 -1.524,-0.348 -0.66,-0.348 -1.044,-1.08 -0.372,-0.732 -0.372,-1.872 0,-1.188 0.384,-1.932 0.396,-0.744 1.08,-1.092 0.684,-0.348 1.548,-0.348 0.48,0 0.936,0.108 0.468,0.096 0.756,0.24 l -0.324,0.876 q -0.288,-0.108 -0.672,-0.204 -0.384,-0.096 -0.72,-0.096 -1.896,0 -1.896,2.436 0,1.164 0.456,1.788 0.468,0.612 1.38,0.612 0.516,0 0.924,-0.108 0.408,-0.108 0.744,-0.264 v 0.936 q -0.324,0.168 -0.72,0.252 -0.384,0.096 -0.936,0.096 z"
           id="path202" />
        <path
           d="m 694.35413,329.9699 q 0.24,0 0.492,-0.036 0.252,-0.036 0.408,-0.096 v 0.804 q -0.168,0.084 -0.48,0.132 -0.312,0.06 -0.6,0.06 -0.504,0 -0.936,-0.168 -0.42,-0.18 -0.684,-0.612 -0.264,-0.432 -0.264,-1.212 v -3.744 h -0.912 v -0.504 l 0.924,-0.42 0.42,-1.368 h 0.624 v 1.476 h 1.86 v 0.816 h -1.86 v 3.72 q 0,0.588 0.276,0.876 0.288,0.276 0.732,0.276 z"
           id="path204" />
      </g>
    </g>
    <g
       fill="rgb(255,204,0)"
       text-rendering="geometricPrecision"
       shape-rendering="geometricPrecision"
       transform="matrix(1,0,0,1,-616,-200)"
       stroke="rgb(255,204,0)"
       id="g33">
      <path
         id="rect31"
         clip-path="url(#clipPath2)"
         style="stroke:none"
         d="m 631.75,244 h 86.5 v 44 h -86.5 z" />
    </g>
    <g
       text-rendering="geometricPrecision"
       stroke-miterlimit="1.45"
       shape-rendering="geometricPrecision"
       transform="matrix(1,0,0,1,-616,-200)"
       stroke-linecap="butt"
       id="g41">
      <path
         id="rect35"
         clip-path="url(#clipPath2)"
         style="fill:none"
         d="m 631.75,244 h 86.5 v 44 h -86.5 z" />
      <g
         aria-label="Project"
         id="text37"
         clip-path="url(#clipPath2)"
         style="font-family:sans-serif;stroke:none">
        <path
           d="m 659.75817,254.79531 q 1.68,0 2.448,0.66 0.768,0.66 0.768,1.86 0,0.708 -0.324,1.332 -0.312,0.612 -1.068,0.996 -0.744,0.384 -2.028,0.384 h -0.984 v 3.336 h -1.08 v -8.568 z m -0.096,0.924 h -1.092 v 3.384 h 0.864 q 1.224,0 1.824,-0.396 0.6,-0.396 0.6,-1.344 0,-0.828 -0.54,-1.236 -0.528,-0.408 -1.656,-0.408 z"
           id="path209" />
        <path
           d="m 667.60617,256.81131 q 0.18,0 0.384,0.024 0.204,0.012 0.372,0.048 l -0.132,0.972 q -0.156,-0.036 -0.348,-0.06 -0.192,-0.024 -0.348,-0.024 -0.492,0 -0.924,0.276 -0.432,0.264 -0.696,0.756 -0.252,0.48 -0.252,1.128 v 3.432 h -1.056 v -6.432 h 0.864 l 0.12,1.176 h 0.048 q 0.3,-0.528 0.792,-0.912 0.504,-0.384 1.176,-0.384 z"
           id="path211" />
        <path
           d="m 674.91416,260.13531 q 0,1.596 -0.816,2.472 -0.804,0.876 -2.184,0.876 -0.852,0 -1.524,-0.384 -0.66,-0.396 -1.044,-1.14 -0.384,-0.756 -0.384,-1.824 0,-1.596 0.792,-2.46 0.804,-0.864 2.196,-0.864 0.864,0 1.536,0.396 0.672,0.384 1.044,1.128 0.384,0.732 0.384,1.8 z m -4.86,0 q 0,1.14 0.444,1.812 0.456,0.66 1.44,0.66 0.972,0 1.428,-0.66 0.456,-0.672 0.456,-1.812 0,-1.14 -0.456,-1.788 -0.456,-0.648 -1.44,-0.648 -0.984,0 -1.428,0.648 -0.444,0.648 -0.444,1.788 z"
           id="path213" />
        <path
           d="m 676.49816,255.19131 q 0,-0.348 0.18,-0.504 0.18,-0.168 0.444,-0.168 0.24,0 0.42,0.168 0.192,0.156 0.192,0.504 0,0.348 -0.192,0.516 -0.18,0.156 -0.42,0.156 -0.264,0 -0.444,-0.156 -0.18,-0.168 -0.18,-0.516 z m -0.672,11.052 q -0.312,0 -0.54,-0.048 -0.228,-0.036 -0.384,-0.096 v -0.852 q 0.18,0.06 0.372,0.084 0.192,0.036 0.42,0.036 0.384,0 0.636,-0.216 0.252,-0.204 0.252,-0.792 v -7.428 h 1.056 v 7.392 q 0,0.9 -0.432,1.404 -0.432,0.516 -1.38,0.516 z"
           id="path215" />
        <path
           d="m 682.16215,256.81131 q 0.816,0 1.416,0.36 0.6,0.36 0.912,1.02 0.324,0.648 0.324,1.524 v 0.636 h -4.404 q 0.024,1.092 0.552,1.668 0.54,0.564 1.5,0.564 0.612,0 1.08,-0.108 0.48,-0.12 0.984,-0.336 v 0.924 q -0.492,0.216 -0.972,0.312 -0.48,0.108 -1.14,0.108 -0.924,0 -1.62,-0.372 -0.696,-0.372 -1.092,-1.104 -0.384,-0.732 -0.384,-1.812 0,-1.056 0.348,-1.812 0.36,-0.756 0.996,-1.164 0.648,-0.408 1.5,-0.408 z m -0.012,0.864 q -0.756,0 -1.2,0.492 -0.432,0.48 -0.516,1.344 h 3.276 q -0.012,-0.816 -0.384,-1.32 -0.372,-0.516 -1.176,-0.516 z"
           id="path217" />
        <path
           d="m 689.02614,263.48331 q -0.864,0 -1.524,-0.348 -0.66,-0.348 -1.044,-1.08 -0.372,-0.732 -0.372,-1.872 0,-1.188 0.384,-1.932 0.396,-0.744 1.08,-1.092 0.684,-0.348 1.548,-0.348 0.48,0 0.936,0.108 0.468,0.096 0.756,0.24 l -0.324,0.876 q -0.288,-0.108 -0.672,-0.204 -0.384,-0.096 -0.72,-0.096 -1.896,0 -1.896,2.436 0,1.164 0.456,1.788 0.468,0.612 1.38,0.612 0.516,0 0.924,-0.108 0.408,-0.108 0.744,-0.264 v 0.936 q -0.324,0.168 -0.72,0.252 -0.384,0.096 -0.936,0.096 z"
           id="path219" />
        <path
           d="m 694.35413,262.61931 q 0.24,0 0.492,-0.036 0.252,-0.036 0.408,-0.096 v 0.804 q -0.168,0.084 -0.48,0.132 -0.312,0.06 -0.6,0.06 -0.504,0 -0.936,-0.168 -0.42,-0.18 -0.684,-0.612 -0.264,-0.432 -0.264,-1.212 v -3.744 h -0.912 v -0.504 l 0.924,-0.42 0.42,-1.368 h 0.624 v 1.476 h 1.86 v 0.816 h -1.86 v 3.72 q 0,0.588 0.276,0.876 0.288,0.276 0.732,0.276 z"
           id="path221" />
      </g>
      <g
         aria-label="Schema"
         id="text39"
         clip-path="url(#clipPath2)"
         style="font-family:sans-serif;stroke:none">
        <path
           d="m 659.01332,275.77251 q 0,1.14 -0.828,1.776 -0.828,0.636 -2.232,0.636 -0.72,0 -1.332,-0.108 -0.612,-0.108 -1.02,-0.3 v -1.032 q 0.432,0.192 1.068,0.348 0.648,0.156 1.332,0.156 0.948,0 1.44,-0.372 0.492,-0.372 0.492,-1.008 0,-0.42 -0.18,-0.708 -0.18,-0.288 -0.624,-0.528 -0.444,-0.24 -1.212,-0.528 -1.104,-0.396 -1.656,-0.972 -0.552,-0.576 -0.552,-1.572 0,-0.672 0.348,-1.164 0.348,-0.492 0.96,-0.756 0.612,-0.264 1.428,-0.264 0.696,0 1.284,0.132 0.588,0.132 1.08,0.348 l -0.336,0.924 q -0.444,-0.192 -0.972,-0.324 -0.528,-0.132 -1.08,-0.132 -0.804,0 -1.212,0.348 -0.408,0.336 -0.408,0.9 0,0.432 0.18,0.72 0.18,0.288 0.588,0.528 0.408,0.228 1.104,0.48 0.756,0.276 1.272,0.6 0.528,0.312 0.792,0.756 0.276,0.444 0.276,1.116 z"
           id="path224" />
        <path
           d="m 663.17732,278.18451 q -0.864,0 -1.524,-0.348 -0.66,-0.348 -1.044,-1.08 -0.372,-0.732 -0.372,-1.872 0,-1.188 0.384,-1.932 0.396,-0.744 1.08,-1.092 0.684,-0.348 1.548,-0.348 0.48,0 0.936,0.108 0.468,0.096 0.756,0.24 l -0.324,0.876 q -0.288,-0.108 -0.672,-0.204 -0.384,-0.096 -0.72,-0.096 -1.896,0 -1.896,2.436 0,1.164 0.456,1.788 0.468,0.612 1.38,0.612 0.516,0 0.924,-0.108 0.408,-0.108 0.744,-0.264 v 0.936 q -0.324,0.168 -0.72,0.252 -0.384,0.096 -0.936,0.096 z"
           id="path226" />
        <path
           d="m 667.41331,268.94451 v 2.676 q 0,0.48 -0.06,0.9 h 0.072 q 0.312,-0.492 0.84,-0.744 0.54,-0.252 1.164,-0.252 1.164,0 1.752,0.564 0.6,0.552 0.6,1.788 v 4.188 h -1.044 v -4.116 q 0,-1.548 -1.44,-1.548 -1.08,0 -1.488,0.612 -0.396,0.6 -0.396,1.728 v 3.324 h -1.056 v -9.12 z"
           id="path228" />
        <path
           d="m 676.25731,271.51251 q 0.816,0 1.416,0.36 0.6,0.36 0.912,1.02 0.324,0.648 0.324,1.524 v 0.636 h -4.404 q 0.024,1.092 0.552,1.668 0.54,0.564 1.5,0.564 0.612,0 1.08,-0.108 0.48,-0.12 0.984,-0.336 v 0.924 q -0.492,0.216 -0.972,0.312 -0.48,0.108 -1.14,0.108 -0.924,0 -1.62,-0.372 -0.696,-0.372 -1.092,-1.104 -0.384,-0.732 -0.384,-1.812 0,-1.056 0.348,-1.812 0.36,-0.756 0.996,-1.164 0.648,-0.408 1.5,-0.408 z m -0.012,0.864 q -0.756,0 -1.2,0.492 -0.432,0.48 -0.516,1.344 h 3.276 q -0.012,-0.816 -0.384,-1.32 -0.372,-0.516 -1.176,-0.516 z"
           id="path230" />
        <path
           d="m 687.5973,271.51251 q 1.092,0 1.632,0.564 0.54,0.564 0.54,1.8 v 4.188 h -1.044 v -4.14 q 0,-1.524 -1.308,-1.524 -0.936,0 -1.344,0.54 -0.396,0.54 -0.396,1.572 v 3.552 h -1.044 v -4.14 q 0,-1.524 -1.32,-1.524 -0.972,0 -1.344,0.6 -0.372,0.6 -0.372,1.728 v 3.336 h -1.056 v -6.432 h 0.852 l 0.156,0.876 h 0.06 q 0.3,-0.504 0.804,-0.744 0.516,-0.252 1.092,-0.252 1.512,0 1.968,1.08 h 0.06 q 0.324,-0.552 0.876,-0.816 0.552,-0.264 1.188,-0.264 z"
           id="path232" />
        <path
           d="m 694.19729,271.52451 q 1.176,0 1.74,0.516 0.564,0.516 0.564,1.644 v 4.38 h -0.768 l -0.204,-0.912 h -0.048 q -0.42,0.528 -0.888,0.78 -0.468,0.252 -1.272,0.252 -0.876,0 -1.452,-0.456 -0.576,-0.468 -0.576,-1.452 0,-0.96 0.756,-1.476 0.756,-0.528 2.328,-0.576 l 1.092,-0.036 v -0.384 q 0,-0.804 -0.348,-1.116 -0.348,-0.312 -0.984,-0.312 -0.504,0 -0.96,0.156 -0.456,0.144 -0.852,0.336 l -0.324,-0.792 q 0.42,-0.228 0.996,-0.384 0.576,-0.168 1.2,-0.168 z m 1.26,3.396 -0.948,0.036 q -1.2,0.048 -1.668,0.384 -0.456,0.336 -0.456,0.948 0,0.54 0.324,0.792 0.336,0.252 0.852,0.252 0.804,0 1.344,-0.444 0.552,-0.456 0.552,-1.392 z"
           id="path234" />
      </g>
    </g>
    <g
       fill="rgb(255,204,0)"
       text-rendering="geometricPrecision"
       shape-rendering="geometricPrecision"
       transform="matrix(1,0,0,1,-616,-200)"
       stroke="rgb(255,204,0)"
       id="g45">
      <path
         id="rect43"
         clip-path="url(#clipPath2)"
         style="stroke:none"
         d="m 774,344 h 66 v 44 h -66 z" />
    </g>
    <g
       text-rendering="geometricPrecision"
       stroke-miterlimit="1.45"
       shape-rendering="geometricPrecision"
       transform="matrix(1,0,0,1,-616,-200)"
       stroke-linecap="butt"
       id="g53">
      <path
         id="rect47"
         clip-path="url(#clipPath2)"
         style="fill:none"
         d="m 774,344 h 66 v 44 h -66 z" />
      <g
         aria-label="Work"
         id="text49"
         clip-path="url(#clipPath2)"
         style="font-family:sans-serif;stroke:none">
        <path
           d="m 804.00601,354.79531 -2.28,8.568 h -1.092 l -1.668,-5.616 q -0.108,-0.336 -0.204,-0.684 -0.084,-0.36 -0.156,-0.624 -0.06,-0.276 -0.072,-0.384 -0.012,0.156 -0.132,0.672 -0.12,0.504 -0.276,1.056 l -1.62,5.58 h -1.092 l -2.268,-8.568 h 1.128 l 1.332,5.232 q 0.144,0.552 0.24,1.068 0.108,0.516 0.168,0.972 0.06,-0.468 0.18,-1.02 0.12,-0.552 0.276,-1.08 l 1.512,-5.172 h 1.116 l 1.572,5.208 q 0.168,0.552 0.288,1.104 0.12,0.552 0.18,0.96 0.048,-0.444 0.156,-0.96 0.12,-0.528 0.264,-1.092 l 1.32,-5.22 z"
           id="path239" />
        <path
           d="m 810.53401,360.13531 q 0,1.596 -0.816,2.472 -0.804,0.876 -2.184,0.876 -0.852,0 -1.524,-0.384 -0.66,-0.396 -1.044,-1.14 -0.384,-0.756 -0.384,-1.824 0,-1.596 0.792,-2.46 0.804,-0.864 2.196,-0.864 0.864,0 1.536,0.396 0.672,0.384 1.044,1.128 0.384,0.732 0.384,1.8 z m -4.86,0 q 0,1.14 0.444,1.812 0.456,0.66 1.44,0.66 0.972,0 1.428,-0.66 0.456,-0.672 0.456,-1.812 0,-1.14 -0.456,-1.788 -0.456,-0.648 -1.44,-0.648 -0.984,0 -1.428,0.648 -0.444,0.648 -0.444,1.788 z"
           id="path241" />
        <path
           d="m 815.20201,356.81131 q 0.18,0 0.384,0.024 0.204,0.012 0.372,0.048 l -0.132,0.972 q -0.156,-0.036 -0.348,-0.06 -0.192,-0.024 -0.348,-0.024 -0.492,0 -0.924,0.276 -0.432,0.264 -0.696,0.756 -0.252,0.48 -0.252,1.128 v 3.432 h -1.056 v -6.432 h 0.864 l 0.12,1.176 h 0.048 q 0.3,-0.528 0.792,-0.912 0.504,-0.384 1.176,-0.384 z"
           id="path243" />
        <path
           d="m 818.20201,354.24331 v 4.764 q 0,0.192 -0.024,0.504 -0.012,0.312 -0.024,0.54 h 0.048 q 0.072,-0.096 0.216,-0.276 0.144,-0.18 0.288,-0.36 0.156,-0.192 0.264,-0.312 l 2.052,-2.172 h 1.236 l -2.604,2.748 2.784,3.684 h -1.272 l -2.232,-3 -0.732,0.636 v 2.364 h -1.044 v -9.12 z"
           id="path245" />
      </g>
      <g
         aria-label="Package"
         id="text51"
         clip-path="url(#clipPath2)"
         style="font-family:sans-serif;stroke:none">
        <path
           d="m 787.08239,369.49651 q 1.68,0 2.448,0.66 0.768,0.66 0.768,1.86 0,0.708 -0.324,1.332 -0.312,0.612 -1.068,0.996 -0.744,0.384 -2.028,0.384 h -0.984 v 3.336 h -1.08 v -8.568 z m -0.096,0.924 h -1.092 v 3.384 h 0.864 q 1.224,0 1.824,-0.396 0.6,-0.396 0.6,-1.344 0,-0.828 -0.54,-1.236 -0.528,-0.408 -1.656,-0.408 z"
           id="path248" />
        <path
           d="m 794.36639,371.52451 q 1.176,0 1.74,0.516 0.564,0.516 0.564,1.644 v 4.38 h -0.768 l -0.204,-0.912 h -0.048 q -0.42,0.528 -0.888,0.78 -0.468,0.252 -1.272,0.252 -0.876,0 -1.452,-0.456 -0.576,-0.468 -0.576,-1.452 0,-0.96 0.756,-1.476 0.756,-0.528 2.328,-0.576 l 1.092,-0.036 v -0.384 q 0,-0.804 -0.348,-1.116 -0.348,-0.312 -0.984,-0.312 -0.504,0 -0.96,0.156 -0.456,0.144 -0.852,0.336 l -0.324,-0.792 q 0.42,-0.228 0.996,-0.384 0.576,-0.168 1.2,-0.168 z m 1.26,3.396 -0.948,0.036 q -1.2,0.048 -1.668,0.384 -0.456,0.336 -0.456,0.948 0,0.54 0.324,0.792 0.336,0.252 0.852,0.252 0.804,0 1.344,-0.444 0.552,-0.456 0.552,-1.392 z"
           id="path250" />
        <path
           d="m 801.2424,378.18451 q -0.864,0 -1.524,-0.348 -0.66,-0.348 -1.044,-1.08 -0.372,-0.732 -0.372,-1.872 0,-1.188 0.384,-1.932 0.396,-0.744 1.08,-1.092 0.684,-0.348 1.548,-0.348 0.48,0 0.936,0.108 0.468,0.096 0.756,0.24 l -0.324,0.876 q -0.288,-0.108 -0.672,-0.204 -0.384,-0.096 -0.72,-0.096 -1.896,0 -1.896,2.436 0,1.164 0.456,1.788 0.468,0.612 1.38,0.612 0.516,0 0.924,-0.108 0.408,-0.108 0.744,-0.264 v 0.936 q -0.324,0.168 -0.72,0.252 -0.384,0.096 -0.936,0.096 z"
           id="path252" />
        <path
           d="m 805.46639,368.94451 v 4.764 q 0,0.192 -0.024,0.504 -0.012,0.312 -0.024,0.54 h 0.048 q 0.072,-0.096 0.216,-0.276 0.144,-0.18 0.288,-0.36 0.156,-0.192 0.264,-0.312 l 2.052,-2.172 h 1.236 l -2.604,2.748 2.784,3.684 h -1.272 l -2.232,-3 -0.732,0.636 v 2.364 h -1.044 v -9.12 z"
           id="path254" />
        <path
           d="m 813.26639,371.52451 q 1.176,0 1.74,0.516 0.564,0.516 0.564,1.644 v 4.38 h -0.768 l -0.204,-0.912 h -0.048 q -0.42,0.528 -0.888,0.78 -0.468,0.252 -1.272,0.252 -0.876,0 -1.452,-0.456 -0.576,-0.468 -0.576,-1.452 0,-0.96 0.756,-1.476 0.756,-0.528 2.328,-0.576 l 1.092,-0.036 v -0.384 q 0,-0.804 -0.348,-1.116 -0.348,-0.312 -0.984,-0.312 -0.504,0 -0.96,0.156 -0.456,0.144 -0.852,0.336 l -0.324,-0.792 q 0.42,-0.228 0.996,-0.384 0.576,-0.168 1.2,-0.168 z m 1.26,3.396 -0.948,0.036 q -1.2,0.048 -1.668,0.384 -0.456,0.336 -0.456,0.948 0,0.54 0.324,0.792 0.336,0.252 0.852,0.252 0.804,0 1.344,-0.444 0.552,-0.456 0.552,-1.392 z"
           id="path256" />
        <path
           d="m 819.8424,371.51251 q 0.636,0 1.14,0.24 0.516,0.24 0.876,0.732 h 0.06 l 0.144,-0.852 h 0.84 v 6.54 q 0,1.38 -0.708,2.076 -0.696,0.696 -2.172,0.696 -1.416,0 -2.316,-0.408 v -0.972 q 0.948,0.504 2.376,0.504 0.828,0 1.296,-0.492 0.48,-0.48 0.48,-1.32 v -0.252 q 0,-0.144 0.012,-0.408 0.012,-0.276 0.024,-0.384 h -0.048 q -0.648,0.972 -1.992,0.972 -1.248,0 -1.956,-0.876 -0.696,-0.876 -0.696,-2.448 0,-1.536 0.696,-2.436 0.708,-0.912 1.944,-0.912 z m 0.144,0.888 q -0.804,0 -1.248,0.648 -0.444,0.636 -0.444,1.824 0,1.188 0.432,1.824 0.432,0.624 1.284,0.624 0.972,0 1.416,-0.516 0.444,-0.528 0.444,-1.692 v -0.252 q 0,-1.308 -0.456,-1.884 -0.456,-0.576 -1.428,-0.576 z"
           id="path258" />
        <path
           d="m 827.4264,371.51251 q 0.816,0 1.416,0.36 0.6,0.36 0.912,1.02 0.324,0.648 0.324,1.524 v 0.636 h -4.404 q 0.024,1.092 0.552,1.668 0.54,0.564 1.5,0.564 0.612,0 1.08,-0.108 0.48,-0.12 0.984,-0.336 v 0.924 q -0.492,0.216 -0.972,0.312 -0.48,0.108 -1.14,0.108 -0.924,0 -1.62,-0.372 -0.696,-0.372 -1.092,-1.104 -0.384,-0.732 -0.384,-1.812 0,-1.056 0.348,-1.812 0.36,-0.756 0.996,-1.164 0.648,-0.408 1.5,-0.408 z m -0.012,0.864 q -0.756,0 -1.2,0.492 -0.432,0.48 -0.516,1.344 h 3.276 q -0.012,-0.816 -0.384,-1.32 -0.372,-0.516 -1.176,-0.516 z"
           id="path260" />
      </g>
    </g>
    <g
       fill="rgb(255,204,0)"
       text-rendering="geometricPrecision"
       shape-rendering="geometricPrecision"
       transform="matrix(1,0,0,1,-616,-200)"
       stroke="rgb(255,204,0)"
       id="g57">
      <path
         id="rect55"
         clip-path="url(#clipPath2)"
         style="stroke:none"
         d="m 774,283 h 66 v 44 h -66 z" />
    </g>
    <g
       text-rendering="geometricPrecision"
       stroke-miterlimit="1.45"
       shape-rendering="geometricPrecision"
       transform="matrix(1,0,0,1,-616,-200)"
       stroke-linecap="butt"
       id="g65">
      <path
         id="rect59"
         clip-path="url(#clipPath2)"
         style="fill:none"
         d="m 774,283 h 66 v 44 h -66 z" />
      <g
         aria-label="[WP]"
         id="text61"
         clip-path="url(#clipPath2)"
         style="font-family:sans-serif;stroke:none">
        <path
           d="m 797.64898,304.25931 h -2.688 v -10.464 h 2.688 v 0.864 h -1.656 v 8.736 h 1.656 z"
           id="path265" />
        <path
           d="m 808.95298,293.79531 -2.28,8.568 h -1.092 l -1.668,-5.616 q -0.108,-0.336 -0.204,-0.684 -0.084,-0.36 -0.156,-0.624 -0.06,-0.276 -0.072,-0.384 -0.012,0.156 -0.132,0.672 -0.12,0.504 -0.276,1.056 l -1.62,5.58 h -1.092 l -2.268,-8.568 h 1.128 l 1.332,5.232 q 0.144,0.552 0.24,1.068 0.108,0.516 0.168,0.972 0.06,-0.468 0.18,-1.02 0.12,-0.552 0.276,-1.08 l 1.512,-5.172 h 1.116 l 1.572,5.208 q 0.168,0.552 0.288,1.104 0.12,0.552 0.18,0.96 0.048,-0.444 0.156,-0.96 0.12,-0.528 0.264,-1.092 l 1.32,-5.22 z"
           id="path267" />
        <path
           d="m 812.54099,293.79531 q 1.68,0 2.448,0.66 0.768,0.66 0.768,1.86 0,0.708 -0.324,1.332 -0.312,0.612 -1.068,0.996 -0.744,0.384 -2.028,0.384 h -0.984 v 3.336 h -1.08 v -8.568 z m -0.096,0.924 h -1.092 v 3.384 h 0.864 q 1.224,0 1.824,-0.396 0.6,-0.396 0.6,-1.344 0,-0.828 -0.54,-1.236 -0.528,-0.408 -1.656,-0.408 z"
           id="path269" />
        <path
           d="m 816.66898,303.39531 h 1.656 v -8.736 h -1.656 v -0.864 h 2.688 v 10.464 h -2.688 z"
           id="path271" />
      </g>
      <g
         aria-label="Type"
         id="text63"
         clip-path="url(#clipPath2)"
         style="font-family:sans-serif;stroke:none">
        <path
           d="m 797.53707,317.06451 h -1.08 v -7.62 h -2.676 v -0.948 h 6.42 v 0.948 h -2.664 z"
           id="path274" />
        <path
           d="m 800.10506,310.63251 h 1.128 l 1.392,3.66 q 0.18,0.492 0.324,0.924 0.144,0.432 0.216,0.828 h 0.048 q 0.072,-0.3 0.228,-0.78 0.156,-0.492 0.324,-0.984 l 1.308,-3.648 h 1.14 l -2.772,7.32 q -0.348,0.912 -0.876,1.452 -0.528,0.54 -1.464,0.54 -0.288,0 -0.504,-0.036 -0.216,-0.024 -0.372,-0.06 v -0.84 q 0.132,0.024 0.312,0.048 0.192,0.024 0.396,0.024 0.552,0 0.888,-0.312 0.336,-0.312 0.54,-0.828 l 0.336,-0.852 z"
           id="path276" />
        <path
           d="m 810.29307,310.51251 q 1.188,0 1.908,0.828 0.732,0.828 0.732,2.496 0,1.644 -0.732,2.496 -0.72,0.852 -1.92,0.852 -0.744,0 -1.236,-0.276 -0.48,-0.276 -0.756,-0.66 h -0.072 q 0.012,0.204 0.036,0.516 0.036,0.312 0.036,0.54 v 2.64 h -1.056 v -9.312 h 0.864 l 0.144,0.876 h 0.048 q 0.288,-0.42 0.756,-0.708 0.468,-0.288 1.248,-0.288 z m -0.192,0.888 q -0.984,0 -1.392,0.552 -0.408,0.552 -0.42,1.68 v 0.204 q 0,1.188 0.384,1.836 0.396,0.636 1.452,0.636 0.576,0 0.96,-0.312 0.384,-0.324 0.564,-0.888 0.192,-0.564 0.192,-1.284 0,-1.104 -0.432,-1.764 -0.42,-0.66 -1.308,-0.66 z"
           id="path278" />
        <path
           d="m 817.09706,310.51251 q 0.816,0 1.416,0.36 0.6,0.36 0.912,1.02 0.324,0.648 0.324,1.524 v 0.636 h -4.404 q 0.024,1.092 0.552,1.668 0.54,0.564 1.5,0.564 0.612,0 1.08,-0.108 0.48,-0.12 0.984,-0.336 v 0.924 q -0.492,0.216 -0.972,0.312 -0.48,0.108 -1.14,0.108 -0.924,0 -1.62,-0.372 -0.696,-0.372 -1.092,-1.104 -0.384,-0.732 -0.384,-1.812 0,-1.056 0.348,-1.812 0.36,-0.756 0.996,-1.164 0.648,-0.408 1.5,-0.408 z m -0.012,0.864 q -0.756,0 -1.2,0.492 -0.432,0.48 -0.516,1.344 h 3.276 q -0.012,-0.816 -0.384,-1.32 -0.372,-0.516 -1.176,-0.516 z"
           id="path280" />
      </g>
    </g>
    <g
       fill="rgb(255,204,0)"
       text-rendering="geometricPrecision"
       shape-rendering="geometricPrecision"
       transform="matrix(1,0,0,1,-616,-200)"
       stroke="rgb(255,204,0)"
       id="g69">
      <path
         id="rect67"
         clip-path="url(#clipPath2)"
         style="stroke:none"
         d="m 774,215 h 66 v 44 h -66 z" />
    </g>
    <g
       text-rendering="geometricPrecision"
       stroke-miterlimit="1.45"
       shape-rendering="geometricPrecision"
       transform="matrix(1,0,0,1,-616,-200)"
       stroke-linecap="butt"
       id="g77">
      <path
         id="rect71"
         clip-path="url(#clipPath2)"
         style="fill:none"
         d="m 774,215 h 66 v 44 h -66 z" />
      <g
         aria-label="WP"
         id="text73"
         clip-path="url(#clipPath2)"
         style="font-family:sans-serif;stroke:none">
        <path
           d="m 808.33902,225.7953 -2.28,8.568 h -1.092 l -1.668,-5.616 q -0.108,-0.336 -0.204,-0.684 -0.084,-0.36 -0.156,-0.624 -0.06,-0.276 -0.072,-0.384 -0.012,0.156 -0.132,0.672 -0.12,0.504 -0.276,1.056 l -1.62,5.58 h -1.092 l -2.268,-8.568 h 1.128 l 1.332,5.232 q 0.144,0.552 0.24,1.068 0.108,0.516 0.168,0.972 0.06,-0.468 0.18,-1.02 0.12,-0.552 0.276,-1.08 l 1.512,-5.172 h 1.116 l 1.572,5.208 q 0.168,0.552 0.288,1.104 0.12,0.552 0.18,0.96 0.048,-0.444 0.156,-0.96 0.12,-0.528 0.264,-1.092 l 1.32,-5.22 z"
           id="path285" />
        <path
           d="m 811.92703,225.7953 q 1.68,0 2.448,0.66 0.768,0.66 0.768,1.86 0,0.708 -0.324,1.332 -0.312,0.612 -1.068,0.996 -0.744,0.384 -2.028,0.384 h -0.984 v 3.336 h -1.08 v -8.568 z m -0.096,0.924 h -1.092 v 3.384 h 0.864 q 1.224,0 1.824,-0.396 0.6,-0.396 0.6,-1.344 0,-0.828 -0.54,-1.236 -0.528,-0.408 -1.656,-0.408 z"
           id="path287" />
      </g>
      <g
         aria-label="Schema(?)"
         id="text75"
         clip-path="url(#clipPath2)"
         style="font-family:sans-serif;stroke:none">
        <path
           d="m 783.68019,246.7725 q 0,1.14 -0.828,1.776 -0.828,0.636 -2.232,0.636 -0.72,0 -1.332,-0.108 -0.612,-0.108 -1.02,-0.3 v -1.032 q 0.432,0.192 1.068,0.348 0.648,0.156 1.332,0.156 0.948,0 1.44,-0.372 0.492,-0.372 0.492,-1.008 0,-0.42 -0.18,-0.708 -0.18,-0.288 -0.624,-0.528 -0.444,-0.24 -1.212,-0.528 -1.104,-0.396 -1.656,-0.972 -0.552,-0.576 -0.552,-1.572 0,-0.672 0.348,-1.164 0.348,-0.492 0.96,-0.756 0.612,-0.264 1.428,-0.264 0.696,0 1.284,0.132 0.588,0.132 1.08,0.348 l -0.336,0.924 q -0.444,-0.192 -0.972,-0.324 -0.528,-0.132 -1.08,-0.132 -0.804,0 -1.212,0.348 -0.408,0.336 -0.408,0.9 0,0.432 0.18,0.72 0.18,0.288 0.588,0.528 0.408,0.228 1.104,0.48 0.756,0.276 1.272,0.6 0.528,0.312 0.792,0.756 0.276,0.444 0.276,1.116 z"
           id="path290" />
        <path
           d="m 787.84419,249.1845 q -0.864,0 -1.524,-0.348 -0.66,-0.348 -1.044,-1.08 -0.372,-0.732 -0.372,-1.872 0,-1.188 0.384,-1.932 0.396,-0.744 1.08,-1.092 0.684,-0.348 1.548,-0.348 0.48,0 0.936,0.108 0.468,0.096 0.756,0.24 l -0.324,0.876 q -0.288,-0.108 -0.672,-0.204 -0.384,-0.096 -0.72,-0.096 -1.896,0 -1.896,2.436 0,1.164 0.456,1.788 0.468,0.612 1.38,0.612 0.516,0 0.924,-0.108 0.408,-0.108 0.744,-0.264 v 0.936 q -0.324,0.168 -0.72,0.252 -0.384,0.096 -0.936,0.096 z"
           id="path292" />
        <path
           d="m 792.08018,239.9445 v 2.676 q 0,0.48 -0.06,0.9 h 0.072 q 0.312,-0.492 0.84,-0.744 0.54,-0.252 1.164,-0.252 1.164,0 1.752,0.564 0.6,0.552 0.6,1.788 v 4.188 h -1.044 v -4.116 q 0,-1.548 -1.44,-1.548 -1.08,0 -1.488,0.612 -0.396,0.6 -0.396,1.728 v 3.324 h -1.056 v -9.12 z"
           id="path294" />
        <path
           d="m 800.92418,242.5125 q 0.816,0 1.416,0.36 0.6,0.36 0.912,1.02 0.324,0.648 0.324,1.524 v 0.636 h -4.404 q 0.024,1.092 0.552,1.668 0.54,0.564 1.5,0.564 0.612,0 1.08,-0.108 0.48,-0.12 0.984,-0.336 v 0.924 q -0.492,0.216 -0.972,0.312 -0.48,0.108 -1.14,0.108 -0.924,0 -1.62,-0.372 -0.696,-0.372 -1.092,-1.104 -0.384,-0.732 -0.384,-1.812 0,-1.056 0.348,-1.812 0.36,-0.756 0.996,-1.164 0.648,-0.408 1.5,-0.408 z m -0.012,0.864 q -0.756,0 -1.2,0.492 -0.432,0.48 -0.516,1.344 h 3.276 q -0.012,-0.816 -0.384,-1.32 -0.372,-0.516 -1.176,-0.516 z"
           id="path296" />
        <path
           d="m 812.26417,242.5125 q 1.092,0 1.632,0.564 0.54,0.564 0.54,1.8 v 4.188 h -1.044 v -4.14 q 0,-1.524 -1.308,-1.524 -0.936,0 -1.344,0.54 -0.396,0.54 -0.396,1.572 v 3.552 h -1.044 v -4.14 q 0,-1.524 -1.32,-1.524 -0.972,0 -1.344,0.6 -0.372,0.6 -0.372,1.728 v 3.336 h -1.056 v -6.432 h 0.852 l 0.156,0.876 h 0.06 q 0.3,-0.504 0.804,-0.744 0.516,-0.252 1.092,-0.252 1.512,0 1.968,1.08 h 0.06 q 0.324,-0.552 0.876,-0.816 0.552,-0.264 1.188,-0.264 z"
           id="path298" />
        <path
           d="m 818.86416,242.5245 q 1.176,0 1.74,0.516 0.564,0.516 0.564,1.644 v 4.38 h -0.768 l -0.204,-0.912 h -0.048 q -0.42,0.528 -0.888,0.78 -0.468,0.252 -1.272,0.252 -0.876,0 -1.452,-0.456 -0.576,-0.468 -0.576,-1.452 0,-0.96 0.756,-1.476 0.756,-0.528 2.328,-0.576 l 1.092,-0.036 v -0.384 q 0,-0.804 -0.348,-1.116 -0.348,-0.312 -0.984,-0.312 -0.504,0 -0.96,0.156 -0.456,0.144 -0.852,0.336 l -0.324,-0.792 q 0.42,-0.228 0.996,-0.384 0.576,-0.168 1.2,-0.168 z m 1.26,3.396 -0.948,0.036 q -1.2,0.048 -1.668,0.384 -0.456,0.336 -0.456,0.948 0,0.54 0.324,0.792 0.336,0.252 0.852,0.252 0.804,0 1.344,-0.444 0.552,-0.456 0.552,-1.392 z"
           id="path300" />
        <path
           d="m 822.62017,245.7765 q 0,-1.464 0.42,-2.82 0.432,-1.368 1.344,-2.46 h 0.996 q -0.84,1.128 -1.272,2.484 -0.42,1.356 -0.42,2.784 0,1.392 0.42,2.736 0.432,1.332 1.26,2.46 h -0.984 q -0.912,-1.056 -1.344,-2.388 -0.42,-1.344 -0.42,-2.796 z"
           id="path302" />
        <path
           d="m 827.42017,246.6525 v -0.324 q 0,-0.456 0.084,-0.78 0.096,-0.336 0.312,-0.624 0.228,-0.3 0.612,-0.636 0.456,-0.384 0.72,-0.648 0.264,-0.276 0.372,-0.528 0.108,-0.252 0.108,-0.612 0,-0.576 -0.372,-0.888 -0.372,-0.312 -1.08,-0.312 -0.588,0 -1.044,0.156 -0.456,0.144 -0.876,0.348 l -0.372,-0.84 q 0.48,-0.252 1.056,-0.42 0.588,-0.168 1.308,-0.168 1.14,0 1.764,0.564 0.624,0.564 0.624,1.536 0,0.54 -0.18,0.924 -0.168,0.372 -0.492,0.696 -0.312,0.312 -0.744,0.672 -0.408,0.336 -0.612,0.588 -0.204,0.252 -0.276,0.504 -0.072,0.252 -0.072,0.588 v 0.204 z m -0.276,1.764 q 0,-0.444 0.204,-0.624 0.216,-0.18 0.54,-0.18 0.3,0 0.516,0.18 0.216,0.18 0.216,0.624 0,0.432 -0.216,0.624 -0.216,0.192 -0.516,0.192 -0.324,0 -0.54,-0.192 -0.204,-0.192 -0.204,-0.624 z"
           id="path304" />
        <path
           d="m 834.06817,245.7765 q 0,1.452 -0.432,2.796 -0.42,1.332 -1.332,2.388 h -0.984 q 0.828,-1.128 1.248,-2.46 0.432,-1.344 0.432,-2.736 0,-1.428 -0.432,-2.784 -0.42,-1.356 -1.26,-2.484 h 0.996 q 0.912,1.092 1.332,2.46 0.432,1.356 0.432,2.82 z"
           id="path306" />
      </g>
    </g>
    <g
       fill="rgb(255,204,0)"
       text-rendering="geometricPrecision"
       shape-rendering="geometricPrecision"
       transform="matrix(1,0,0,1,-616,-200)"
       stroke="rgb(255,204,0)"
       id="g81">
      <path
         id="rect79"
         clip-path="url(#clipPath2)"
         style="stroke:none"
         d="m 642,423 h 66 v 44 h -66 z" />
    </g>
    <g
       text-rendering="geometricPrecision"
       stroke-miterlimit="1.45"
       shape-rendering="geometricPrecision"
       transform="matrix(1,0,0,1,-616,-200)"
       stroke-linecap="butt"
       id="g87">
      <path
         id="rect83"
         clip-path="url(#clipPath2)"
         style="fill:none"
         d="m 642,423 h 66 v 44 h -66 z" />
      <g
         aria-label="Grid"
         id="text85"
         clip-path="url(#clipPath2)"
         style="font-family:sans-serif;stroke:none">
        <path
           d="m 668.54898,445.1899 h 2.964 v 4.2 q -0.696,0.228 -1.404,0.336 -0.708,0.108 -1.608,0.108 -1.332,0 -2.244,-0.528 -0.912,-0.54 -1.392,-1.524 -0.468,-0.996 -0.468,-2.352 0,-1.332 0.516,-2.316 0.528,-0.996 1.524,-1.536 0.996,-0.552 2.4,-0.552 0.72,0 1.356,0.132 0.648,0.132 1.2,0.372 l -0.408,0.936 q -0.456,-0.192 -1.032,-0.336 -0.564,-0.156 -1.176,-0.156 -1.536,0 -2.4,0.936 -0.852,0.924 -0.852,2.52 0,1.02 0.324,1.812 0.336,0.78 1.044,1.224 0.708,0.432 1.86,0.432 0.564,0 0.96,-0.06 0.396,-0.06 0.72,-0.144 v -2.544 h -1.884 z"
           id="path311" />
        <path
           d="m 676.42099,443.1619 q 0.18,0 0.384,0.024 0.204,0.012 0.372,0.048 l -0.132,0.972 q -0.156,-0.036 -0.348,-0.06 -0.192,-0.024 -0.348,-0.024 -0.492,0 -0.924,0.276 -0.432,0.264 -0.696,0.756 -0.252,0.48 -0.252,1.128 v 3.432 h -1.056 v -6.432 h 0.864 l 0.12,1.176 h 0.048 q 0.3,-0.528 0.792,-0.912 0.504,-0.384 1.176,-0.384 z"
           id="path313" />
        <path
           d="m 678.91699,440.8699 q 0.24,0 0.42,0.168 0.192,0.156 0.192,0.504 0,0.348 -0.192,0.516 -0.18,0.156 -0.42,0.156 -0.264,0 -0.444,-0.156 -0.18,-0.168 -0.18,-0.516 0,-0.348 0.18,-0.504 0.18,-0.168 0.444,-0.168 z m 0.516,2.412 v 6.432 h -1.056 v -6.432 z"
           id="path315" />
        <path
           d="m 683.75298,449.8339 q -1.2,0 -1.92,-0.828 -0.72,-0.84 -0.72,-2.496 0,-1.656 0.72,-2.496 0.732,-0.852 1.932,-0.852 0.744,0 1.212,0.276 0.48,0.276 0.78,0.672 h 0.072 q -0.024,-0.156 -0.048,-0.456 -0.024,-0.312 -0.024,-0.492 v -2.568 h 1.056 v 9.12 h -0.852 l -0.156,-0.864 h -0.048 q -0.288,0.408 -0.768,0.696 -0.48,0.288 -1.236,0.288 z m 0.168,-0.876 q 1.02,0 1.428,-0.552 0.42,-0.564 0.42,-1.692 v -0.192 q 0,-1.2 -0.396,-1.836 -0.396,-0.648 -1.464,-0.648 -0.852,0 -1.284,0.684 -0.42,0.672 -0.42,1.812 0,1.152 0.42,1.788 0.432,0.636 1.296,0.636 z"
           id="path317" />
      </g>
    </g>
    <g
       fill="rgb(255,204,0)"
       text-rendering="geometricPrecision"
       shape-rendering="geometricPrecision"
       transform="matrix(1,0,0,1,-616,-200)"
       stroke="rgb(255,204,0)"
       id="g91">
      <path
         id="rect89"
         clip-path="url(#clipPath2)"
         style="stroke:none"
         d="m 642,497 h 66 v 44 h -66 z" />
    </g>
    <g
       text-rendering="geometricPrecision"
       stroke-miterlimit="1.45"
       shape-rendering="geometricPrecision"
       transform="matrix(1,0,0,1,-616,-200)"
       stroke-linecap="butt"
       id="g97">
      <path
         id="rect93"
         clip-path="url(#clipPath2)"
         style="fill:none"
         d="m 642,497 h 66 v 44 h -66 z" />
      <g
         aria-label="User"
         id="text95"
         clip-path="url(#clipPath2)"
         style="font-family:sans-serif;stroke:none">
        <path
           d="m 670.01197,515.14593 v 5.544 q 0,0.888 -0.36,1.608 -0.36,0.708 -1.104,1.128 -0.744,0.408 -1.872,0.408 -1.608,0 -2.436,-0.864 -0.828,-0.876 -0.828,-2.304 v -5.52 h 1.08 v 5.556 q 0,1.044 0.552,1.62 0.564,0.576 1.692,0.576 1.164,0 1.68,-0.612 0.528,-0.624 0.528,-1.596 v -5.544 z"
           id="path322" />
        <path
           d="m 676.31198,521.93793 q 0,0.936 -0.696,1.416 -0.696,0.48 -1.872,0.48 -0.672,0 -1.164,-0.108 -0.48,-0.108 -0.852,-0.3 v -0.96 q 0.384,0.192 0.924,0.36 0.552,0.156 1.116,0.156 0.804,0 1.164,-0.252 0.36,-0.264 0.36,-0.696 0,-0.24 -0.132,-0.432 -0.132,-0.192 -0.48,-0.384 -0.336,-0.192 -0.972,-0.432 -0.624,-0.24 -1.068,-0.48 -0.444,-0.24 -0.684,-0.576 -0.24,-0.336 -0.24,-0.864 0,-0.816 0.66,-1.26 0.672,-0.444 1.752,-0.444 0.588,0 1.092,0.12 0.516,0.12 0.96,0.312 l -0.36,0.84 q -0.408,-0.168 -0.852,-0.288 -0.444,-0.12 -0.912,-0.12 -0.648,0 -0.996,0.216 -0.336,0.204 -0.336,0.564 0,0.276 0.156,0.456 0.156,0.18 0.516,0.36 0.372,0.18 0.984,0.408 0.612,0.228 1.044,0.468 0.432,0.24 0.66,0.588 0.228,0.336 0.228,0.852 z"
           id="path324" />
        <path
           d="m 680.35598,517.16193 q 0.816,0 1.416,0.36 0.6,0.36 0.912,1.02 0.324,0.648 0.324,1.524 v 0.636 h -4.404 q 0.024,1.092 0.552,1.668 0.54,0.564 1.5,0.564 0.612,0 1.08,-0.108 0.48,-0.12 0.984,-0.336 v 0.924 q -0.492,0.216 -0.972,0.312 -0.48,0.108 -1.14,0.108 -0.924,0 -1.62,-0.372 -0.696,-0.372 -1.092,-1.104 -0.384,-0.732 -0.384,-1.812 0,-1.056 0.348,-1.812 0.36,-0.756 0.996,-1.164 0.648,-0.408 1.5,-0.408 z m -0.012,0.864 q -0.756,0 -1.2,0.492 -0.432,0.48 -0.516,1.344 h 3.276 q -0.012,-0.816 -0.384,-1.32 -0.372,-0.516 -1.176,-0.516 z"
           id="path326" />
        <path
           d="m 687.63997,517.16193 q 0.18,0 0.384,0.024 0.204,0.012 0.372,0.048 l -0.132,0.972 q -0.156,-0.036 -0.348,-0.06 -0.192,-0.024 -0.348,-0.024 -0.492,0 -0.924,0.276 -0.432,0.264 -0.696,0.756 -0.252,0.48 -0.252,1.128 v 3.432 h -1.056 v -6.432 h 0.864 l 0.12,1.176 h 0.048 q 0.3,-0.528 0.792,-0.912 0.504,-0.384 1.176,-0.384 z"
           id="path328" />
      </g>
    </g>
    <g
       fill="rgb(255,204,0)"
       text-rendering="geometricPrecision"
       shape-rendering="geometricPrecision"
       transform="matrix(1,0,0,1,-616,-200)"
       stroke="rgb(255,204,0)"
       id="g101">
      <path
         id="rect99"
         clip-path="url(#clipPath2)"
         style="stroke:none"
         d="m 887,309 h 66 v 44 h -66 z" />
    </g>
    <g
       text-rendering="geometricPrecision"
       stroke-miterlimit="1.45"
       shape-rendering="geometricPrecision"
       transform="matrix(1,0,0,1,-616,-200)"
       stroke-linecap="butt"
       id="g109">
      <path
         id="rect103"
         clip-path="url(#clipPath2)"
         style="fill:none"
         d="m 887,309 h 66 v 44 h -66 z" />
      <g
         aria-label="[WP]"
         id="text105"
         clip-path="url(#clipPath2)"
         style="font-family:sans-serif;stroke:none">
        <path
           d="m 910.64898,330.25931 h -2.688 v -10.464 h 2.688 v 0.864 h -1.656 v 8.736 h 1.656 z"
           id="path333" />
        <path
           d="m 921.95298,319.79531 -2.28,8.568 h -1.092 l -1.668,-5.616 q -0.108,-0.336 -0.204,-0.684 -0.084,-0.36 -0.156,-0.624 -0.06,-0.276 -0.072,-0.384 -0.012,0.156 -0.132,0.672 -0.12,0.504 -0.276,1.056 l -1.62,5.58 h -1.092 l -2.268,-8.568 h 1.128 l 1.332,5.232 q 0.144,0.552 0.24,1.068 0.108,0.516 0.168,0.972 0.06,-0.468 0.18,-1.02 0.12,-0.552 0.276,-1.08 l 1.512,-5.172 h 1.116 l 1.572,5.208 q 0.168,0.552 0.288,1.104 0.12,0.552 0.18,0.96 0.048,-0.444 0.156,-0.96 0.12,-0.528 0.264,-1.092 l 1.32,-5.22 z"
           id="path335" />
        <path
           d="m 925.54099,319.79531 q 1.68,0 2.448,0.66 0.768,0.66 0.768,1.86 0,0.708 -0.324,1.332 -0.312,0.612 -1.068,0.996 -0.744,0.384 -2.028,0.384 h -0.984 v 3.336 h -1.08 v -8.568 z m -0.096,0.924 h -1.092 v 3.384 h 0.864 q 1.224,0 1.824,-0.396 0.6,-0.396 0.6,-1.344 0,-0.828 -0.54,-1.236 -0.528,-0.408 -1.656,-0.408 z"
           id="path337" />
        <path
           d="m 929.66898,329.39531 h 1.656 v -8.736 h -1.656 v -0.864 h 2.688 v 10.464 h -2.688 z"
           id="path339" />
      </g>
      <g
         aria-label="Activity"
         id="text107"
         clip-path="url(#clipPath2)"
         style="font-family:sans-serif;stroke:none">
        <path
           d="m 907.53799,343.06451 -1.032,-2.652 h -3.396 l -1.02,2.652 h -1.092 l 3.348,-8.604 h 0.972 l 3.336,8.604 z m -1.356,-3.612 -0.96,-2.592 q -0.036,-0.096 -0.12,-0.348 -0.084,-0.252 -0.168,-0.516 -0.072,-0.276 -0.12,-0.42 -0.096,0.372 -0.204,0.732 -0.096,0.348 -0.168,0.552 l -0.972,2.592 z"
           id="path342" />
        <path
           d="m 912.26599,343.18451 q -0.864,0 -1.524,-0.348 -0.66,-0.348 -1.044,-1.08 -0.372,-0.732 -0.372,-1.872 0,-1.188 0.384,-1.932 0.396,-0.744 1.08,-1.092 0.684,-0.348 1.548,-0.348 0.48,0 0.936,0.108 0.468,0.096 0.756,0.24 l -0.324,0.876 q -0.288,-0.108 -0.672,-0.204 -0.384,-0.096 -0.72,-0.096 -1.896,0 -1.896,2.436 0,1.164 0.456,1.788 0.468,0.612 1.38,0.612 0.516,0 0.924,-0.108 0.408,-0.108 0.744,-0.264 v 0.936 q -0.324,0.168 -0.72,0.252 -0.384,0.096 -0.936,0.096 z"
           id="path344" />
        <path
           d="m 917.59398,342.32051 q 0.24,0 0.492,-0.036 0.252,-0.036 0.408,-0.096 v 0.804 q -0.168,0.084 -0.48,0.132 -0.312,0.06 -0.6,0.06 -0.504,0 -0.936,-0.168 -0.42,-0.18 -0.684,-0.612 -0.264,-0.432 -0.264,-1.212 v -3.744 h -0.912 v -0.504 l 0.924,-0.42 0.42,-1.368 h 0.624 v 1.476 h 1.86 v 0.816 h -1.86 v 3.72 q 0,0.588 0.276,0.876 0.288,0.276 0.732,0.276 z"
           id="path346" />
        <path
           d="m 920.31798,334.22051 q 0.24,0 0.42,0.168 0.192,0.156 0.192,0.504 0,0.348 -0.192,0.516 -0.18,0.156 -0.42,0.156 -0.264,0 -0.444,-0.156 -0.18,-0.168 -0.18,-0.516 0,-0.348 0.18,-0.504 0.18,-0.168 0.444,-0.168 z m 0.516,2.412 v 6.432 h -1.056 v -6.432 z"
           id="path348" />
        <path
           d="m 924.28997,343.06451 -2.436,-6.432 h 1.128 l 1.368,3.792 q 0.096,0.264 0.204,0.588 0.108,0.324 0.192,0.624 0.084,0.3 0.12,0.492 h 0.048 q 0.036,-0.192 0.132,-0.492 0.096,-0.312 0.204,-0.624 0.108,-0.324 0.204,-0.588 l 1.368,-3.792 h 1.128 l -2.448,6.432 z"
           id="path350" />
        <path
           d="m 929.50997,334.22051 q 0.24,0 0.42,0.168 0.192,0.156 0.192,0.504 0,0.348 -0.192,0.516 -0.18,0.156 -0.42,0.156 -0.264,0 -0.444,-0.156 -0.18,-0.168 -0.18,-0.516 0,-0.348 0.18,-0.504 0.18,-0.168 0.444,-0.168 z m 0.516,2.412 v 6.432 h -1.056 v -6.432 z"
           id="path352" />
        <path
           d="m 934.21396,342.32051 q 0.24,0 0.492,-0.036 0.252,-0.036 0.408,-0.096 v 0.804 q -0.168,0.084 -0.48,0.132 -0.312,0.06 -0.6,0.06 -0.504,0 -0.936,-0.168 -0.42,-0.18 -0.684,-0.612 -0.264,-0.432 -0.264,-1.212 v -3.744 h -0.912 v -0.504 l 0.924,-0.42 0.42,-1.368 h 0.624 v 1.476 h 1.86 v 0.816 h -1.86 v 3.72 q 0,0.588 0.276,0.876 0.288,0.276 0.732,0.276 z"
           id="path354" />
        <path
           d="m 935.38996,336.63251 h 1.128 l 1.392,3.66 q 0.18,0.492 0.324,0.924 0.144,0.432 0.216,0.828 h 0.048 q 0.072,-0.3 0.228,-0.78 0.156,-0.492 0.324,-0.984 l 1.308,-3.648 h 1.14 l -2.772,7.32 q -0.348,0.912 -0.876,1.452 -0.528,0.54 -1.464,0.54 -0.288,0 -0.504,-0.036 -0.216,-0.024 -0.372,-0.06 v -0.84 q 0.132,0.024 0.312,0.048 0.192,0.024 0.396,0.024 0.552,0 0.888,-0.312 0.336,-0.312 0.54,-0.828 l 0.336,-0.852 z"
           id="path356" />
      </g>
    </g>
    <g
       fill="rgb(255,204,0)"
       text-rendering="geometricPrecision"
       shape-rendering="geometricPrecision"
       transform="matrix(1,0,0,1,-616,-200)"
       stroke="rgb(255,204,0)"
       id="g113">
      <path
         id="rect111"
         clip-path="url(#clipPath2)"
         style="stroke:none"
         d="m 887,359 h 66 v 44 h -66 z" />
    </g>
    <g
       text-rendering="geometricPrecision"
       stroke-miterlimit="1.45"
       shape-rendering="geometricPrecision"
       transform="matrix(1,0,0,1,-616,-200)"
       stroke-linecap="butt"
       id="g121">
      <path
         id="rect115"
         clip-path="url(#clipPath2)"
         style="fill:none"
         d="m 887,359 h 66 v 44 h -66 z" />
      <g
         aria-label="[WP]"
         id="text117"
         clip-path="url(#clipPath2)"
         style="font-family:sans-serif;stroke:none">
        <path
           d="m 910.64898,380.25931 h -2.688 v -10.464 h 2.688 v 0.864 h -1.656 v 8.736 h 1.656 z"
           id="path361" />
        <path
           d="m 921.95298,369.79531 -2.28,8.568 h -1.092 l -1.668,-5.616 q -0.108,-0.336 -0.204,-0.684 -0.084,-0.36 -0.156,-0.624 -0.06,-0.276 -0.072,-0.384 -0.012,0.156 -0.132,0.672 -0.12,0.504 -0.276,1.056 l -1.62,5.58 h -1.092 l -2.268,-8.568 h 1.128 l 1.332,5.232 q 0.144,0.552 0.24,1.068 0.108,0.516 0.168,0.972 0.06,-0.468 0.18,-1.02 0.12,-0.552 0.276,-1.08 l 1.512,-5.172 h 1.116 l 1.572,5.208 q 0.168,0.552 0.288,1.104 0.12,0.552 0.18,0.96 0.048,-0.444 0.156,-0.96 0.12,-0.528 0.264,-1.092 l 1.32,-5.22 z"
           id="path363" />
        <path
           d="m 925.54099,369.79531 q 1.68,0 2.448,0.66 0.768,0.66 0.768,1.86 0,0.708 -0.324,1.332 -0.312,0.612 -1.068,0.996 -0.744,0.384 -2.028,0.384 h -0.984 v 3.336 h -1.08 v -8.568 z m -0.096,0.924 h -1.092 v 3.384 h 0.864 q 1.224,0 1.824,-0.396 0.6,-0.396 0.6,-1.344 0,-0.828 -0.54,-1.236 -0.528,-0.408 -1.656,-0.408 z"
           id="path365" />
        <path
           d="m 929.66898,379.39531 h 1.656 v -8.736 h -1.656 v -0.864 h 2.688 v 10.464 h -2.688 z"
           id="path367" />
      </g>
      <g
         aria-label="Revision"
         id="text119"
         clip-path="url(#clipPath2)"
         style="font-family:sans-serif;stroke:none">
        <path
           d="m 900.51817,384.49651 q 1.596,0 2.352,0.612 0.768,0.6 0.768,1.824 0,0.684 -0.252,1.14 -0.252,0.456 -0.648,0.732 -0.384,0.276 -0.816,0.42 l 2.352,3.84 h -1.26 l -2.076,-3.54 h -1.704 v 3.54 h -1.08 v -8.568 z m -0.06,0.936 h -1.224 v 3.18 h 1.284 q 1.044,0 1.524,-0.408 0.48,-0.42 0.48,-1.224 0,-0.84 -0.504,-1.188 -0.504,-0.36 -1.56,-0.36 z"
           id="path370" />
        <path
           d="m 907.95817,386.51251 q 0.816,0 1.416,0.36 0.6,0.36 0.912,1.02 0.324,0.648 0.324,1.524 v 0.636 h -4.404 q 0.024,1.092 0.552,1.668 0.54,0.564 1.5,0.564 0.612,0 1.08,-0.108 0.48,-0.12 0.984,-0.336 v 0.924 q -0.492,0.216 -0.972,0.312 -0.48,0.108 -1.14,0.108 -0.924,0 -1.62,-0.372 -0.696,-0.372 -1.092,-1.104 -0.384,-0.732 -0.384,-1.812 0,-1.056 0.348,-1.812 0.36,-0.756 0.996,-1.164 0.648,-0.408 1.5,-0.408 z m -0.012,0.864 q -0.756,0 -1.2,0.492 -0.432,0.48 -0.516,1.344 h 3.276 q -0.012,-0.816 -0.384,-1.32 -0.372,-0.516 -1.176,-0.516 z"
           id="path372" />
        <path
           d="m 913.41815,393.06451 -2.436,-6.432 h 1.128 l 1.368,3.792 q 0.096,0.264 0.204,0.588 0.108,0.324 0.192,0.624 0.084,0.3 0.12,0.492 h 0.048 q 0.036,-0.192 0.132,-0.492 0.096,-0.312 0.204,-0.624 0.108,-0.324 0.204,-0.588 l 1.368,-3.792 h 1.128 l -2.448,6.432 z"
           id="path374" />
        <path
           d="m 918.63815,384.22051 q 0.24,0 0.42,0.168 0.192,0.156 0.192,0.504 0,0.348 -0.192,0.516 -0.18,0.156 -0.42,0.156 -0.264,0 -0.444,-0.156 -0.18,-0.168 -0.18,-0.516 0,-0.348 0.18,-0.504 0.18,-0.168 0.444,-0.168 z m 0.516,2.412 v 6.432 h -1.056 v -6.432 z"
           id="path376" />
        <path
           d="m 925.38214,391.28851 q 0,0.936 -0.696,1.416 -0.696,0.48 -1.872,0.48 -0.672,0 -1.164,-0.108 -0.48,-0.108 -0.852,-0.3 v -0.96 q 0.384,0.192 0.924,0.36 0.552,0.156 1.116,0.156 0.804,0 1.164,-0.252 0.36,-0.264 0.36,-0.696 0,-0.24 -0.132,-0.432 -0.132,-0.192 -0.48,-0.384 -0.336,-0.192 -0.972,-0.432 -0.624,-0.24 -1.068,-0.48 -0.444,-0.24 -0.684,-0.576 -0.24,-0.336 -0.24,-0.864 0,-0.816 0.66,-1.26 0.672,-0.444 1.752,-0.444 0.588,0 1.092,0.12 0.516,0.12 0.96,0.312 l -0.36,0.84 q -0.408,-0.168 -0.852,-0.288 -0.444,-0.12 -0.912,-0.12 -0.648,0 -0.996,0.216 -0.336,0.204 -0.336,0.564 0,0.276 0.156,0.456 0.156,0.18 0.516,0.36 0.372,0.18 0.984,0.408 0.612,0.228 1.044,0.468 0.432,0.24 0.66,0.588 0.228,0.336 0.228,0.852 z"
           id="path378" />
        <path
           d="m 927.48214,384.22051 q 0.24,0 0.42,0.168 0.192,0.156 0.192,0.504 0,0.348 -0.192,0.516 -0.18,0.156 -0.42,0.156 -0.264,0 -0.444,-0.156 -0.18,-0.168 -0.18,-0.516 0,-0.348 0.18,-0.504 0.18,-0.168 0.444,-0.168 z m 0.516,2.412 v 6.432 h -1.056 v -6.432 z"
           id="path380" />
        <path
           d="m 935.63014,389.83651 q 0,1.596 -0.816,2.472 -0.804,0.876 -2.184,0.876 -0.852,0 -1.524,-0.384 -0.66,-0.396 -1.044,-1.14 -0.384,-0.756 -0.384,-1.824 0,-1.596 0.792,-2.46 0.804,-0.864 2.196,-0.864 0.864,0 1.536,0.396 0.672,0.384 1.044,1.128 0.384,0.732 0.384,1.8 z m -4.86,0 q 0,1.14 0.444,1.812 0.456,0.66 1.44,0.66 0.972,0 1.428,-0.66 0.456,-0.672 0.456,-1.812 0,-1.14 -0.456,-1.788 -0.456,-0.648 -1.44,-0.648 -0.984,0 -1.428,0.648 -0.444,0.648 -0.444,1.788 z"
           id="path382" />
        <path
           d="m 940.39413,386.51251 q 1.152,0 1.74,0.564 0.588,0.564 0.588,1.8 v 4.188 h -1.044 v -4.116 q 0,-1.548 -1.44,-1.548 -1.068,0 -1.476,0.6 -0.408,0.6 -0.408,1.728 v 3.336 h -1.056 v -6.432 h 0.852 l 0.156,0.876 h 0.06 q 0.312,-0.504 0.864,-0.744 0.552,-0.252 1.164,-0.252 z"
           id="path384" />
      </g>
    </g>
    <g
       fill="rgb(255,204,0)"
       text-rendering="geometricPrecision"
       shape-rendering="geometricPrecision"
       transform="matrix(1,0,0,1,-616,-200)"
       stroke="rgb(255,204,0)"
       id="g125">
      <path
         id="rect123"
         clip-path="url(#clipPath2)"
         style="stroke:none"
         d="m 887,409 h 66 v 44 h -66 z" />
    </g>
    <g
       text-rendering="geometricPrecision"
       stroke-miterlimit="1.45"
       shape-rendering="geometricPrecision"
       transform="matrix(1,0,0,1,-616,-200)"
       stroke-linecap="butt"
       id="g133">
      <path
         id="rect127"
         clip-path="url(#clipPath2)"
         style="fill:none"
         d="m 887,409 h 66 v 44 h -66 z" />
      <g
         aria-label="[WP]"
         id="text129"
         clip-path="url(#clipPath2)"
         style="font-family:sans-serif;stroke:none">
        <path
           d="m 910.64898,430.25931 h -2.688 v -10.464 h 2.688 v 0.864 h -1.656 v 8.736 h 1.656 z"
           id="path389" />
        <path
           d="m 921.95298,419.79531 -2.28,8.568 h -1.092 l -1.668,-5.616 q -0.108,-0.336 -0.204,-0.684 -0.084,-0.36 -0.156,-0.624 -0.06,-0.276 -0.072,-0.384 -0.012,0.156 -0.132,0.672 -0.12,0.504 -0.276,1.056 l -1.62,5.58 h -1.092 l -2.268,-8.568 h 1.128 l 1.332,5.232 q 0.144,0.552 0.24,1.068 0.108,0.516 0.168,0.972 0.06,-0.468 0.18,-1.02 0.12,-0.552 0.276,-1.08 l 1.512,-5.172 h 1.116 l 1.572,5.208 q 0.168,0.552 0.288,1.104 0.12,0.552 0.18,0.96 0.048,-0.444 0.156,-0.96 0.12,-0.528 0.264,-1.092 l 1.32,-5.22 z"
           id="path391" />
        <path
           d="m 925.54099,419.79531 q 1.68,0 2.448,0.66 0.768,0.66 0.768,1.86 0,0.708 -0.324,1.332 -0.312,0.612 -1.068,0.996 -0.744,0.384 -2.028,0.384 h -0.984 v 3.336 h -1.08 v -8.568 z m -0.096,0.924 h -1.092 v 3.384 h 0.864 q 1.224,0 1.824,-0.396 0.6,-0.396 0.6,-1.344 0,-0.828 -0.54,-1.236 -0.528,-0.408 -1.656,-0.408 z"
           id="path393" />
        <path
           d="m 929.66898,429.39531 h 1.656 v -8.736 h -1.656 v -0.864 h 2.688 v 10.464 h -2.688 z"
           id="path395" />
      </g>
      <g
         aria-label="Attachment"
         id="text131"
         clip-path="url(#clipPath2)"
         style="font-family:sans-serif;stroke:none">
        <path
           d="m 896.19143,443.06451 -1.032,-2.652 h -3.396 l -1.02,2.652 h -1.092 l 3.348,-8.604 h 0.972 l 3.336,8.604 z m -1.356,-3.612 -0.96,-2.592 q -0.036,-0.096 -0.12,-0.348 -0.084,-0.252 -0.168,-0.516 -0.072,-0.276 -0.12,-0.42 -0.096,0.372 -0.204,0.732 -0.096,0.348 -0.168,0.552 l -0.972,2.592 z"
           id="path398" />
        <path
           d="m 900.48743,442.32051 q 0.24,0 0.492,-0.036 0.252,-0.036 0.408,-0.096 v 0.804 q -0.168,0.084 -0.48,0.132 -0.312,0.06 -0.6,0.06 -0.504,0 -0.936,-0.168 -0.42,-0.18 -0.684,-0.612 -0.264,-0.432 -0.264,-1.212 v -3.744 h -0.912 v -0.504 l 0.924,-0.42 0.42,-1.368 h 0.624 v 1.476 h 1.86 v 0.816 h -1.86 v 3.72 q 0,0.588 0.276,0.876 0.288,0.276 0.732,0.276 z"
           id="path400" />
        <path
           d="m 904.81943,442.32051 q 0.24,0 0.492,-0.036 0.252,-0.036 0.408,-0.096 v 0.804 q -0.168,0.084 -0.48,0.132 -0.312,0.06 -0.6,0.06 -0.504,0 -0.936,-0.168 -0.42,-0.18 -0.684,-0.612 -0.264,-0.432 -0.264,-1.212 v -3.744 h -0.912 v -0.504 l 0.924,-0.42 0.42,-1.368 h 0.624 v 1.476 h 1.86 v 0.816 h -1.86 v 3.72 q 0,0.588 0.276,0.876 0.288,0.276 0.732,0.276 z"
           id="path402" />
        <path
           d="m 909.43943,436.52451 q 1.176,0 1.74,0.516 0.564,0.516 0.564,1.644 v 4.38 h -0.768 l -0.204,-0.912 h -0.048 q -0.42,0.528 -0.888,0.78 -0.468,0.252 -1.272,0.252 -0.876,0 -1.452,-0.456 -0.576,-0.468 -0.576,-1.452 0,-0.96 0.756,-1.476 0.756,-0.528 2.328,-0.576 l 1.092,-0.036 v -0.384 q 0,-0.804 -0.348,-1.116 -0.348,-0.312 -0.984,-0.312 -0.504,0 -0.96,0.156 -0.456,0.144 -0.852,0.336 l -0.324,-0.792 q 0.42,-0.228 0.996,-0.384 0.576,-0.168 1.2,-0.168 z m 1.26,3.396 -0.948,0.036 q -1.2,0.048 -1.668,0.384 -0.456,0.336 -0.456,0.948 0,0.54 0.324,0.792 0.336,0.252 0.852,0.252 0.804,0 1.344,-0.444 0.552,-0.456 0.552,-1.392 z"
           id="path404" />
        <path
           d="m 916.31544,443.18451 q -0.864,0 -1.524,-0.348 -0.66,-0.348 -1.044,-1.08 -0.372,-0.732 -0.372,-1.872 0,-1.188 0.384,-1.932 0.396,-0.744 1.08,-1.092 0.684,-0.348 1.548,-0.348 0.48,0 0.936,0.108 0.468,0.096 0.756,0.24 l -0.324,0.876 q -0.288,-0.108 -0.672,-0.204 -0.384,-0.096 -0.72,-0.096 -1.896,0 -1.896,2.436 0,1.164 0.456,1.788 0.468,0.612 1.38,0.612 0.516,0 0.924,-0.108 0.408,-0.108 0.744,-0.264 v 0.936 q -0.324,0.168 -0.72,0.252 -0.384,0.096 -0.936,0.096 z"
           id="path406" />
        <path
           d="m 920.55143,433.94451 v 2.676 q 0,0.48 -0.06,0.9 h 0.072 q 0.312,-0.492 0.84,-0.744 0.54,-0.252 1.164,-0.252 1.164,0 1.752,0.564 0.6,0.552 0.6,1.788 v 4.188 h -1.044 v -4.116 q 0,-1.548 -1.44,-1.548 -1.08,0 -1.488,0.612 -0.396,0.6 -0.396,1.728 v 3.324 h -1.056 v -9.12 z"
           id="path408" />
        <path
           d="m 933.96743,436.51251 q 1.092,0 1.632,0.564 0.54,0.564 0.54,1.8 v 4.188 h -1.044 v -4.14 q 0,-1.524 -1.308,-1.524 -0.936,0 -1.344,0.54 -0.396,0.54 -0.396,1.572 v 3.552 h -1.044 v -4.14 q 0,-1.524 -1.32,-1.524 -0.972,0 -1.344,0.6 -0.372,0.6 -0.372,1.728 v 3.336 h -1.056 v -6.432 h 0.852 l 0.156,0.876 h 0.06 q 0.3,-0.504 0.804,-0.744 0.516,-0.252 1.092,-0.252 1.512,0 1.968,1.08 h 0.06 q 0.324,-0.552 0.876,-0.816 0.552,-0.264 1.188,-0.264 z"
           id="path410" />
        <path
           d="m 940.61543,436.51251 q 0.816,0 1.416,0.36 0.6,0.36 0.912,1.02 0.324,0.648 0.324,1.524 v 0.636 h -4.404 q 0.024,1.092 0.552,1.668 0.54,0.564 1.5,0.564 0.612,0 1.08,-0.108 0.48,-0.12 0.984,-0.336 v 0.924 q -0.492,0.216 -0.972,0.312 -0.48,0.108 -1.14,0.108 -0.924,0 -1.62,-0.372 -0.696,-0.372 -1.092,-1.104 -0.384,-0.732 -0.384,-1.812 0,-1.056 0.348,-1.812 0.36,-0.756 0.996,-1.164 0.648,-0.408 1.5,-0.408 z m -0.012,0.864 q -0.756,0 -1.2,0.492 -0.432,0.48 -0.516,1.344 h 3.276 q -0.012,-0.816 -0.384,-1.32 -0.372,-0.516 -1.176,-0.516 z"
           id="path412" />
        <path
           d="m 947.99542,436.51251 q 1.152,0 1.74,0.564 0.588,0.564 0.588,1.8 v 4.188 h -1.044 v -4.116 q 0,-1.548 -1.44,-1.548 -1.068,0 -1.476,0.6 -0.408,0.6 -0.408,1.728 v 3.336 h -1.056 v -6.432 h 0.852 l 0.156,0.876 h 0.06 q 0.312,-0.504 0.864,-0.744 0.552,-0.252 1.164,-0.252 z"
           id="path414" />
        <path
           d="m 954.46342,442.32051 q 0.24,0 0.492,-0.036 0.252,-0.036 0.408,-0.096 v 0.804 q -0.168,0.084 -0.48,0.132 -0.312,0.06 -0.6,0.06 -0.504,0 -0.936,-0.168 -0.42,-0.18 -0.684,-0.612 -0.264,-0.432 -0.264,-1.212 v -3.744 h -0.912 v -0.504 l 0.924,-0.42 0.42,-1.368 h 0.624 v 1.476 h 1.86 v 0.816 h -1.86 v 3.72 q 0,0.588 0.276,0.876 0.288,0.276 0.732,0.276 z"
           id="path416" />
      </g>
    </g>
    <g
       fill="rgb(255,204,0)"
       text-rendering="geometricPrecision"
       shape-rendering="geometricPrecision"
       transform="matrix(1,0,0,1,-616,-200)"
       stroke="rgb(255,204,0)"
       id="g137">
      <path
         id="circle135"
         clip-path="url(#clipPath2)"
         style="stroke:none"
         d="m 812.5,480 a 15,15 0 0 1 -15,15 15,15 0 0 1 -15,-15 15,15 0 0 1 15,-15 15,15 0 0 1 15,15 z" />
    </g>
    <g
       text-rendering="geometricPrecision"
       stroke-miterlimit="1.45"
       shape-rendering="geometricPrecision"
       transform="matrix(1,0,0,1,-616,-200)"
       stroke-linecap="butt"
       id="g141">
      <path
         id="circle139"
         clip-path="url(#clipPath2)"
         style="fill:none"
         d="m 812.5,480 a 15,15 0 0 1 -15,15 15,15 0 0 1 -15,-15 15,15 0 0 1 15,-15 15,15 0 0 1 15,15 z" />
    </g>
    <g
       fill="rgb(0,204,255)"
       text-rendering="geometricPrecision"
       shape-rendering="geometricPrecision"
       transform="matrix(1,0,0,1,-616,-200)"
       stroke="rgb(0,204,255)"
       id="g145">
      <path
         id="rect143"
         clip-path="url(#clipPath2)"
         style="stroke:none"
         d="m 831,533 h 22 c 2.216,0 4,1.784 4,4 v 22 c 0,2.216 -1.784,4 -4,4 h -22 c -2.216,0 -4,-1.784 -4,-4 v -22 c 0,-2.216 1.784,-4 4,-4 z" />
    </g>
    <g
       text-rendering="geometricPrecision"
       stroke-miterlimit="1.45"
       shape-rendering="geometricPrecision"
       transform="matrix(1,0,0,1,-616,-200)"
       stroke-linecap="butt"
       id="g149">
      <path
         id="rect147"
         clip-path="url(#clipPath2)"
         style="fill:none"
         d="m 831,533 h 22 c 2.216,0 4,1.784 4,4 v 22 c 0,2.216 -1.784,4 -4,4 h -22 c -2.216,0 -4,-1.784 -4,-4 v -22 c 0,-2.216 1.784,-4 4,-4 z" />
    </g>
    <g
       fill="rgb(255,204,0)"
       text-rendering="geometricPrecision"
       shape-rendering="geometricPrecision"
       transform="matrix(1,0,0,1,-616,-200)"
       stroke="rgb(255,204,0)"
       id="g153">
      <path
         d="M887 512 L890 497 L914 497 L917 512 L914 527 L890 527 Z"
         fill-rule="evenodd"
         clip-path="url(#clipPath2)"
         stroke="none"
         id="path151" />
    </g>
    <g
       text-rendering="geometricPrecision"
       stroke-miterlimit="1.45"
       shape-rendering="geometricPrecision"
       transform="matrix(1,0,0,1,-616,-200)"
       stroke-linecap="butt"
       id="g181">
      <path
         fill="none"
         d="M887 512 L890 497 L914 497 L917 512 L914 527 L890 527 Z"
         fill-rule="evenodd"
         clip-path="url(#clipPath2)"
         id="path155" />
      <path
         fill="none"
         d="M708 336 L766.3438 353.6799"
         clip-path="url(#clipPath2)"
         id="path157" />
      <path
         d="M774 356 L763.9658 347.7348 L765.3868 353.3899 L761.0657 357.305 Z"
         clip-path="url(#clipPath2)"
         stroke="none"
         id="path159" />
      <path
         fill="none"
         d="M708 320.75 L766.0994 311.5069"
         clip-path="url(#clipPath2)"
         id="path161" />
      <path
         d="M774 310.25 L761.3635 307.1975 L765.1118 311.664 L762.9346 317.0733 Z"
         clip-path="url(#clipPath2)"
         stroke="none"
         id="path163" />
      <path
         fill="none"
         d="M840 355.7787 L879.3582 343.5882"
         clip-path="url(#clipPath2)"
         id="path165" />
      <path
         d="M887 341.2213 L874.0579 339.9955 L878.403 343.884 L877.0165 349.5478 Z"
         clip-path="url(#clipPath2)"
         stroke="none"
         id="path167" />
      <path
         fill="none"
         d="M840 370.3805 L879.0696 375.5667"
         clip-path="url(#clipPath2)"
         id="path169" />
      <path
         d="M887 376.6195 L875.7623 370.0839 L878.0782 375.4352 L874.4464 379.9969 Z"
         clip-path="url(#clipPath2)"
         stroke="none"
         id="path171" />
      <path
         fill="none"
         d="M840 384.9823 L880.0654 408.0288"
         clip-path="url(#clipPath2)"
         id="path173" />
      <path
         d="M887 412.0177 L879.0912 401.7002 L879.1986 407.5302 L874.105 410.3684 Z"
         clip-path="url(#clipPath2)"
         stroke="none"
         id="path175" />
      <path
         fill="none"
         d="M805.7137 492.5513 L825.5956 522.9326"
         stroke-width="5"
         clip-path="url(#clipPath2)"
         stroke="rgb(51,102,255)"
         id="path177" />
      <path
         fill="rgb(51,102,255)"
         d="M832.1666 532.9736 L828.5858 513.8052 L824.7742 521.6774 L816.0345 522.0189 Z"
         stroke-width="5"
         clip-path="url(#clipPath2)"
         stroke="none"
         id="path179" />
    </g>
  </g>
</svg>
