{
    "metadata": {
        "time_signature": "4/4",
        "key_signature": "F",
        "tempo": 600000
    },
    "tracks": [
        {
            "name": "",
            "length": 189,
            "notes": [
                {
                    "type": "note_on",
                    "note": 72,
                    "velocity": 74,
                    "time": 0
                },
                {
                    "type": "note_off",
                    "note": 72,
                    "velocity": 0,
                    "time": 960
                },
                {
                    "type": "note_on",
                    "note": 60,
                    "velocity": 58,
                    "time": 0
                },
                {
                    "type": "note_off",
                    "note": 60,
                    "velocity": 0,
                    "time": 960
                },
                {
                    "type": "note_on",
                    "note": 65,
                    "velocity": 84,
                    "time": 0
                },
                {
                    "type": "note_off",
                    "note": 65,
                    "velocity": 0,
                    "time": 1920
                },
                {
                    "type": "note_on",
                    "note": 72,
                    "velocity": 93,
                    "time": 0
                },
                {
                    "type": "note_off",
                    "note": 72,
                    "velocity": 0,
                    "time": 960
                },
                {
                    "type": "note_on",
                    "note": 60,
                    "velocity": 57,
                    "time": 0
                },
                {
                    "type": "note_off",
                    "note": 60,
                    "velocity": 0,
                    "time": 960
                },
                {
                    "type": "note_on",
                    "note": 65,
                    "velocity": 79,
                    "time": 0
                },
                {
                    "type": "note_off",
                    "note": 65,
                    "velocity": 0,
                    "time": 1920
                },
                {
                    "type": "note_on",
                    "note": 72,
                    "velocity": 92,
                    "time": 0
                },
                {
                    "type": "note_off",
                    "note": 72,
                    "velocity": 0,
                    "time": 480
                },
                {
                    "type": "note_on",
                    "note": 70,
                    "velocity": 72,
                    "time": 0
                },
                {
                    "type": "note_off",
                    "note": 70,
                    "velocity": 0,
                    "time": 480
                },
                {
                    "type": "note_on",
                    "note": 69,
                    "velocity": 74,
                    "time": 0
                },
                {
                    "type": "note_off",
                    "note": 69,
                    "velocity": 0,
                    "time": 480
                },
                {
                    "type": "note_on",
                    "note": 67,
                    "velocity": 67,
                    "time": 0
                },
                {
                    "type": "note_off",
                    "note": 67,
                    "velocity": 0,
                    "time": 480
                },
                {
                    "type": "note_on",
                    "note": 65,
                    "velocity": 74,
                    "time": 0
                },
                {
                    "type": "note_off",
                    "note": 65,
                    "velocity": 0,
                    "time": 480
                },
                {
                    "type": "note_on",
                    "note": 67,
                    "velocity": 79,
                    "time": 0
                },
                {
                    "type": "note_off",
                    "note": 67,
                    "velocity": 0,
                    "time": 480
                },
                {
                    "type": "note_on",
                    "note": 69,
                    "velocity": 78,
                    "time": 0
                },
                {
                    "type": "note_off",
                    "note": 69,
                    "velocity": 0,
                    "time": 480
                },
                {
                    "type": "note_on",
                    "note": 70,
                    "velocity": 80,
                    "time": 0
                },
                {
                    "type": "note_off",
                    "note": 70,
                    "velocity": 0,
                    "time": 480
                },
                {
                    "type": "note_on",
                    "note": 72,
                    "velocity": 80,
                    "time": 0
                },
                {
                    "type": "note_off",
                    "note": 72,
                    "velocity": 0,
                    "time": 960
                },
                {
                    "type": "note_on",
                    "note": 60,
                    "velocity": 54,
                    "time": 0
                },
                {
                    "type": "note_off",
                    "note": 60,
                    "velocity": 0,
                    "time": 960
                },
                {
                    "type": "note_on",
                    "note": 65,
                    "velocity": 87,
                    "time": 0
                },
                {
                    "type": "note_off",
                    "note": 65,
                    "velocity": 0,
                    "time": 1920
                },
                {
                    "type": "note_on",
                    "note": 69,
                    "velocity": 88,
                    "time": 0
                },
                {
                    "type": "note_off",
                    "note": 69,
                    "velocity": 0,
                    "time": 480
                },
                {
                    "type": "note_on",
                    "note": 69,
                    "velocity": 75,
                    "time": 0
                },
                {
                    "type": "note_off",
                    "note": 69,
                    "velocity": 0,
                    "time": 480
                },
                {
                    "type": "note_on",
                    "note": 69,
                    "velocity": 77,
                    "time": 0
                },
                {
                    "type": "note_off",
                    "note": 69,
                    "velocity": 0,
                    "time": 480
                },
                {
                    "type": "note_on",
                    "note": 69,
                    "velocity": 76,
                    "time": 0
                },
                {
                    "type": "note_off",
                    "note": 69,
                    "velocity": 0,
                    "time": 480
                },
                {
                    "type": "note_on",
                    "note": 69,
                    "velocity": 78,
                    "time": 0
                },
                {
                    "type": "note_off",
                    "note": 69,
                    "velocity": 0,
                    "time": 960
                },
                {
                    "type": "note_on",
                    "note": 67,
                    "velocity": 75,
                    "time": 0
                },
                {
                    "type": "note_off",
                    "note": 67,
                    "velocity": 0,
                    "time": 960
                },
                {
                    "type": "note_on",
                    "note": 65,
                    "velocity": 71,
                    "time": 0
                },
                {
                    "type": "note_off",
                    "note": 65,
                    "velocity": 0,
                    "time": 480
                },
                {
                    "type": "note_on",
                    "note": 65,
                    "velocity": 73,
                    "time": 0
                },
                {
                    "type": "note_off",
                    "note": 65,
                    "velocity": 0,
                    "time": 480
                },
                {
                    "type": "note_on",
                    "note": 65,
                    "velocity": 77,
                    "time": 0
                },
                {
                    "type": "note_off",
                    "note": 65,
                    "velocity": 0,
                    "time": 480
                },
                {
                    "type": "note_on",
                    "note": 65,
                    "velocity": 77,
                    "time": 0
                },
                {
                    "type": "note_off",
                    "note": 65,
                    "velocity": 0,
                    "time": 480
                },
                {
                    "type": "note_on",
                    "note": 65,
                    "velocity": 75,
                    "time": 0
                },
                {
                    "type": "note_off",
                    "note": 65,
                    "velocity": 0,
                    "time": 960
                },
                {
                    "type": "note_on",
                    "note": 64,
                    "velocity": 72,
                    "time": 0
                },
                {
                    "type": "note_off",
                    "note": 64,
                    "velocity": 0,
                    "time": 960
                },
                {
                    "type": "note_on",
                    "note": 62,
                    "velocity": 71,
                    "time": 0
                },
                {
                    "type": "note_off",
                    "note": 62,
                    "velocity": 0,
                    "time": 480
                },
                {
                    "type": "note_on",
                    "note": 62,
                    "velocity": 75,
                    "time": 0
                },
                {
                    "type": "note_off",
                    "note": 62,
                    "velocity": 0,
                    "time": 480
                },
                {
                    "type": "note_on",
                    "note": 62,
                    "velocity": 74,
                    "time": 0
                },
                {
                    "type": "note_off",
                    "note": 62,
                    "velocity": 0,
                    "time": 480
                },
                {
                    "type": "note_on",
                    "note": 62,
                    "velocity": 75,
                    "time": 0
                },
                {
                    "type": "note_off",
                    "note": 62,
                    "velocity": 0,
                    "time": 480
                },
                {
                    "type": "note_on",
                    "note": 60,
                    "velocity": 70,
                    "time": 0
                },
                {
                    "type": "note_off",
                    "note": 60,
                    "velocity": 0,
                    "time": 960
                },
                {
                    "type": "note_on",
                    "note": 65,
                    "velocity": 89,
                    "time": 0
                },
                {
                    "type": "note_off",
                    "note": 65,
                    "velocity": 0,
                    "time": 960
                },
                {
                    "type": "note_on",
                    "note": 67,
                    "velocity": 86,
                    "time": 0
                },
                {
                    "type": "note_off",
                    "note": 67,
                    "velocity": 0,
                    "time": 480
                },
                {
                    "type": "note_on",
                    "note": 65,
                    "velocity": 69,
                    "time": 0
                },
                {
                    "type": "note_off",
                    "note": 65,
                    "velocity": 0,
                    "time": 480
                },
                {
                    "type": "note_on",
                    "note": 64,
                    "velocity": 75,
                    "time": 0
                },
                {
                    "type": "note_off",
                    "note": 64,
                    "velocity": 0,
                    "time": 480
                },
                {
                    "type": "note_on",
                    "note": 62,
                    "velocity": 70,
                    "time": 0
                },
                {
                    "type": "note_off",
                    "note": 62,
                    "velocity": 0,
                    "time": 480
                },
                {
                    "type": "note_on",
                    "note": 60,
                    "velocity": 74,
                    "time": 0
                },
                {
                    "type": "note_off",
                    "note": 60,
                    "velocity": 0,
                    "time": 960
                },
                {
                    "type": "note_on",
                    "note": 60,
                    "velocity": 65,
                    "time": 0
                },
                {
                    "type": "note_off",
                    "note": 60,
                    "velocity": 0,
                    "time": 960
                },
                {
                    "type": "note_on",
                    "note": 60,
                    "velocity": 73,
                    "time": 0
                },
                {
                    "type": "note_off",
                    "note": 60,
                    "velocity": 0,
                    "time": 480
                },
                {
                    "type": "note_on",
                    "note": 60,
                    "velocity": 76,
                    "time": 0
                },
                {
                    "type": "note_off",
                    "note": 60,
                    "velocity": 0,
                    "time": 480
                },
                {
                    "type": "note_on",
                    "note": 65,
                    "velocity": 89,
                    "time": 0
                },
                {
                    "type": "note_off",
                    "note": 65,
                    "velocity": 0,
                    "time": 960
                },
                {
                    "type": "note_on",
                    "note": 65,
                    "velocity": 81,
                    "time": 0
                },
                {
                    "type": "note_off",
                    "note": 65,
                    "velocity": 0,
                    "time": 480
                },
                {
                    "type": "note_on",
                    "note": 65,
                    "velocity": 76,
                    "time": 0
                },
                {
                    "type": "note_off",
                    "note": 65,
                    "velocity": 0,
                    "time": 480
                },
                {
                    "type": "note_on",
                    "note": 67,
                    "velocity": 85,
                    "time": 0
                },
                {
                    "type": "note_off",
                    "note": 67,
                    "velocity": 0,
                    "time": 480
                },
                {
                    "type": "note_on",
                    "note": 69,
                    "velocity": 79,
                    "time": 0
                },
                {
                    "type": "note_off",
                    "note": 69,
                    "velocity": 0,
                    "time": 480
                },
                {
                    "type": "note_on",
                    "note": 70,
                    "velocity": 85,
                    "time": 0
                },
                {
                    "type": "note_off",
                    "note": 70,
                    "velocity": 0,
                    "time": 480
                },
                {
                    "type": "note_on",
                    "note": 67,
                    "velocity": 70,
                    "time": 0
                },
                {
                    "type": "note_off",
                    "note": 67,
                    "velocity": 0,
                    "time": 480
                },
                {
                    "type": "note_on",
                    "note": 69,
                    "velocity": 81,
                    "time": 0
                },
                {
                    "type": "note_off",
                    "note": 69,
                    "velocity": 0,
                    "time": 960
                },
                {
                    "type": "note_on",
                    "note": 72,
                    "velocity": 70,
                    "time": 0
                },
                {
                    "type": "note_off",
                    "note": 72,
                    "velocity": 0,
                    "time": 480
                },
                {
                    "type": "note_on",
                    "note": 70,
                    "velocity": 73,
                    "time": 0
                },
                {
                    "type": "note_off",
                    "note": 70,
                    "velocity": 0,
                    "time": 480
                },
                {
                    "type": "note_on",
                    "note": 69,
                    "velocity": 64,
                    "time": 0
                },
                {
                    "type": "note_off",
                    "note": 69,
                    "velocity": 0,
                    "time": 480
                },
                {
                    "type": "note_on",
                    "note": 67,
                    "velocity": 70,
                    "time": 0
                },
                {
                    "type": "note_off",
                    "note": 67,
                    "velocity": 0,
                    "time": 480
                },
                {
                    "type": "note_on",
                    "note": 65,
                    "velocity": 72,
                    "time": 0
                },
                {
                    "type": "note_off",
                    "note": 65,
                    "velocity": 0,
                    "time": 480
                },
                {
                    "type": "note_on",
                    "note": 67,
                    "velocity": 78,
                    "time": 0
                },
                {
                    "type": "note_off",
                    "note": 67,
                    "velocity": 0,
                    "time": 480
                },
                {
                    "type": "note_on",
                    "note": 69,
                    "velocity": 86,
                    "time": 0
                },
                {
                    "type": "note_off",
                    "note": 69,
                    "velocity": 0,
                    "time": 480
                },
                {
                    "type": "note_on",
                    "note": 70,
                    "velocity": 82,
                    "time": 0
                },
                {
                    "type": "note_off",
                    "note": 70,
                    "velocity": 0,
                    "time": 480
                },
                {
                    "type": "note_on",
                    "note": 72,
                    "velocity": 79,
                    "time": 0
                },
                {
                    "type": "note_off",
                    "note": 72,
                    "velocity": 0,
                    "time": 960
                },
                {
                    "type": "note_on",
                    "note": 60,
                    "velocity": 51,
                    "time": 0
                },
                {
                    "type": "note_off",
                    "note": 60,
                    "velocity": 0,
                    "time": 960
                },
                {
                    "type": "note_on",
                    "note": 65,
                    "velocity": 90,
                    "time": 0
                },
                {
                    "type": "note_off",
                    "note": 65,
                    "velocity": 0,
                    "time": 1920
                }
            ]
        }
    ]
}